<svg width="752" height="535" viewBox="0 0 752 535" fill="none" xmlns="http://www.w3.org/2000/svg">
<path fill-rule="evenodd" clip-rule="evenodd" d="M583.01 67.9307C583.276 70.2231 586.119 68.4725 586.385 69.715C586.552 70.4958 583.626 72.4333 582.994 72.967C585.033 74.1971 587.636 71.363 589.165 70.1754C589.952 71.0309 590.219 71.4803 589.495 72.459C588.219 74.1868 588.277 71.8974 586.76 73.0997C587.392 74.1626 587.947 73.5534 588.75 73.2675C588.4 75.3128 589.183 74.0182 589.796 75.3136C590.294 76.367 590.234 77.1455 590.382 78.3221C589.662 79.9789 588.942 81.6363 588.221 83.2931C587.354 85.2863 587.612 85.927 585.493 85.2607C585.731 84.8472 587.317 82.8254 587.188 82.3284C587.042 81.7602 584.873 80.9744 584.3 80.4971C583.292 79.6578 583.303 78.9379 582.66 78.0362C582.916 77.1976 582.717 76.8054 582.063 76.8618L581.341 78.8052C581.401 80.1841 582.565 80.0551 583.251 81.3724C584.303 83.3884 583.714 82.1986 582.855 83.8209C582.011 85.4146 581.917 87.4489 580.53 88.2501C581.275 88.5778 582.02 88.9055 582.766 89.2325C581.026 91.1443 584.645 90.2133 585.244 90.0279C584.631 91.3291 584.019 92.6303 583.407 93.9315C581.573 92.9037 580.667 90.9552 579.446 89.3461L576.655 94.5378C577.581 94.452 578.507 94.3669 579.431 94.2812C579.302 94.5253 578.117 96.1996 578.218 96.572C578.632 98.0902 581.781 97.234 581.433 99.2199C581.388 99.4743 578.565 102.324 578.081 102.599C579.5 103.236 580.141 102.972 579.633 104.647L577.657 103.451C577.096 104.459 576.446 105.444 576.089 106.548C576.157 107.27 576.029 107.954 575.702 108.6C575.314 109.179 574.877 109.718 574.39 110.218C574.005 111.234 573.881 116.776 574.346 117.68C575.381 116.34 577.697 118.704 573.789 118.704C572.078 118.704 572.193 118.348 571.539 119.852C571.025 121.036 570.747 122.069 572.205 122.183C571.109 124.345 571.343 126.01 571.244 128.314C571.163 130.181 570.64 132.036 570.253 133.867C570.6 133.368 570.947 132.87 571.295 132.37C572.23 134.367 571.517 136.049 571.073 138.186C570.101 136.902 569.983 139.192 569.152 138.956C567.458 138.472 568.727 138.115 568.038 137.003C567.441 136.04 567.504 135.764 566.4 135.175C564.937 134.394 562.372 134.365 560.717 134.089C557.934 133.625 555.147 133.508 552.331 133.386C541.792 132.928 531.289 132.811 520.751 133.391C511.056 133.924 501.126 135.285 491.619 137.128C481.497 139.09 471.598 140.899 461.795 144.218C459.901 144.859 458.005 146.197 456.112 146.667C454.315 147.113 452.515 147.107 450.642 147.758C446.157 149.317 441.517 150.499 436.998 151.986C432.128 153.589 426.858 154.926 422.223 157.145C420.211 158.109 418.383 159.416 416.37 160.393C414.475 161.313 411.287 162.152 410.286 164.277C409.896 165.105 409.962 165.706 410.205 166.564C410.691 168.287 411.075 168.101 412.396 167.984C414.235 167.821 416.614 166.39 418.399 165.827C423.285 164.286 428.231 163.052 433.2 161.817C442.125 159.6 451.084 155.673 459.891 154.138C465.114 153.227 470.062 150.751 475.314 149.815C476.466 149.611 479.801 147.965 480.747 148.534C480.997 148.684 481.611 150.491 481.827 150.922C482.603 152.474 483.492 153.971 484.533 155.36C487.672 159.549 491.883 162.923 495.641 166.532C499.934 170.656 503.664 175.205 507.626 179.631C507.97 179.232 508.314 178.832 508.657 178.433C508.295 181.228 510.386 183.244 512.097 185.142C514.126 187.397 515.759 189.517 517.359 192.088C518.672 194.196 520.352 196.042 521.836 197.962C523.295 199.852 524.266 202.133 525.609 204.169C528.691 208.847 531.724 213.615 534.832 218.23C536.296 220.402 537.452 222.846 538.609 225.319C539.529 227.281 542.294 231.294 542.294 233.198C542.096 234.13 544.116 239.74 541.957 237.096C541.612 237.63 541.267 238.164 540.922 238.697C541.513 238.449 542.102 238.202 542.693 237.954C540.9 239.579 544.249 239.788 544.323 240.696C544.024 240.984 543.726 241.273 543.428 241.561C542.918 242.612 542.255 242.748 541.44 241.97C540.541 242.025 540.361 241.522 539.359 241.857C540.316 243.352 541.549 242.407 542.034 244.472C542.46 246.292 541.109 246.683 539.681 247.759L539.592 247.827L539.561 247.934C539.25 248.865 538.367 248.469 537.384 248.266C535.033 247.782 532.435 246.853 530.146 246.138C525.197 244.593 520.21 243.291 515.093 242.235C503.418 239.824 491.837 239.938 480.056 239.175C480.366 237.884 480.368 237.997 480 237.197C480.472 238.223 477.627 236.883 479.771 239.15C474.297 240.046 468.384 239.372 462.832 239.671C463.091 239.095 463.685 238.432 463.13 238.015C460.501 241.819 451.718 240.188 447.376 240.732C444.827 241.053 442.308 241.666 439.768 242.07L438.698 242.238C437.806 242.38 436.914 242.536 436.043 242.772C434.92 243.074 433.049 244.318 431.985 244.03C433.543 240.886 431.746 243.607 431.502 243.643C430.762 243.753 429.488 244.002 428.425 244.002C429.637 239.133 431.715 234.648 432.552 229.633C433.074 226.508 434.508 221.473 431.42 219.258C429.728 218.044 426.955 217.78 424.996 217.368C422.849 216.915 419.097 216.934 417.228 215.719C415.769 214.77 415.461 213.897 413.55 213.172C411.345 212.334 410.329 211.503 408.101 212.18C409.007 211.044 410.277 210.216 408.498 209.055C407.77 208.581 406.341 209.219 406.086 208.181C404.766 209.115 405.079 209.868 404.726 211.147C404.758 211.689 404.9 212.205 405.153 212.694C404.455 212.976 403.757 213.257 403.058 213.539C403.502 212.345 402.199 213.056 401.939 212.469C401.551 211.592 401.781 210.252 401.781 209.3C400.341 209.755 398.836 210.318 398.206 211.818C396.443 210.766 397.143 210.694 398.047 209.116C396.567 208.766 396.253 209.528 396.028 210.755C395.247 210.513 394.465 210.272 393.684 210.031C395.445 210.019 395.868 208.642 395.91 207.146C395.225 207.369 394.54 207.593 393.854 207.816C393.714 208.539 393.573 209.263 393.432 209.986C392.354 210.901 389.547 209.249 388.637 208.776C385.462 207.129 384.301 206.652 384.748 202.909C385.122 199.772 385.951 196.619 386.135 193.465C386.339 189.962 385.93 186.215 385.623 182.722C385.029 175.964 384.071 169.304 383.736 162.518C383.555 158.844 383.353 155.169 383.209 151.493C383.094 148.571 382.086 145.355 385.729 145.096C385.284 143.681 386.617 142.045 387.994 141.27C388.475 140.172 389.001 140.074 389.573 140.977C390.069 141.133 390.531 141.06 390.958 140.755C392.963 140.3 395.368 137.452 397.169 136.425C398.934 135.418 402.783 133.955 404.043 132.26C405.262 130.621 403.418 130.805 403.791 129.302C404.299 127.248 406.152 130.198 406.436 130.609C407.055 129.986 409.419 128.819 409.391 127.915C408.812 127.811 408.233 127.708 407.654 127.605C408.287 127.239 409.691 126.147 410.427 126.002C411.678 125.757 411.208 125.439 412.211 126.82C412.56 126.278 413.408 124.501 413.939 124.141C414.192 123.969 415.698 123.854 416.014 123.743C417.653 123.163 417.487 121.887 418.692 121.28C419.277 120.986 419.996 121.437 420.487 121.223C421.27 120.88 421.273 119.709 421.984 119.285C422.599 118.917 424.159 119.223 424.894 118.955C426.111 118.51 426.057 118.096 426.966 117.284C428.239 116.145 429.412 116.31 430.831 115.447C432.301 114.553 432.076 112.539 433.41 112.155C435.192 111.643 435.649 113.332 436.618 111.663C436.836 111.289 435.847 110.728 436.467 110.127C437.232 109.387 437.548 110.27 437.899 110.846L439.109 108.561C441.049 109.624 440.234 108.253 441.714 107.523C442.371 107.199 442.913 107.839 443.633 107.447C444.162 107.16 444.254 106.534 444.634 106.146C445.365 105.4 445.769 104.377 446.901 104.022C446.492 104.15 449.847 104.053 449.547 103.909C449.221 103.43 448.894 102.951 448.568 102.471C450.323 102.471 451.856 102.646 453.555 102.118C454.156 101.932 455.096 101.644 455.596 101.262C456.971 100.21 456.661 100.466 456.661 98.5337C458.557 99.7419 460.971 99.3196 462.843 97.9187C463.82 97.1871 464.446 96.3118 465.517 95.6506C465.977 95.4123 466.445 95.1895 466.92 94.9827C467.515 94.3669 468.11 94.3611 468.707 94.9659C469.551 94.7394 469.541 94.5832 470.195 94.1734C470.383 93.8025 470.582 93.4381 470.796 93.0811C471.498 93.0078 472.189 92.881 472.872 92.7007C475.521 91.9874 477.12 90.2177 479.579 91.7858C479.893 91.1443 480.208 90.5022 480.522 89.86C481.568 91.4962 482.284 89.9333 483.673 89.2706C484.255 88.9928 485.011 88.9239 485.537 88.6702L486.426 88.8806C486.677 88.1035 486.928 87.3265 487.178 86.5494C487.684 86.7466 489.69 87.825 490.293 87.7678C491.157 87.6864 492.19 86.2225 493.027 85.9461C494.305 85.5246 493.847 86.0817 495.101 86.0905C496.066 86.0971 496.521 86.2342 497.354 85.4234C494.537 84.6911 498.091 84.3458 499.278 84.098C501.128 83.7124 502.081 84.1244 503.365 82.6619H502.032C503.348 81.4633 502.905 81.8863 504.29 82.0036C504.727 82.0395 506.625 83.0827 506.629 81.6913C508.42 82.7477 508.44 82.7499 510.286 82.2734C511.103 82.0623 511.799 81.3754 512.698 81.3592C513.575 81.3438 514.203 81.7404 514.985 81.6554C515.453 81.6056 517.092 80.9905 517.645 80.7889C518.524 80.4685 519.102 79.7846 519.942 79.5199C520.867 79.2274 522.043 79.5749 523.014 79.3616C525.902 78.7253 527.597 76.9952 530.723 77.9321C531.057 75.131 534.545 75.7541 536.422 76.043C537.729 76.2446 538.395 76.7738 539.748 76.1331C540.849 75.6119 541.477 74.785 542.703 74.3686C543.643 74.049 544.91 73.8166 545.893 73.6128C546.5 73.4207 547.12 73.3592 547.754 73.4288C548.39 73.5182 548.924 73.7954 549.354 74.2594L549.434 74.351C549.531 74.1198 551.011 73.0228 550.841 73.1583C551.945 72.2735 552.463 72.6114 553.142 70.8887L550.775 70.3887C551.994 70.3066 552.909 70.1659 553.993 70.6402C554.743 70.9679 556.002 72.7045 556.752 72.706C558.109 72.7075 558.584 70.7934 558.449 69.7972C559.588 72.4516 560.56 72.8937 563.118 71.5367C563.418 71.3769 563.719 71.2179 564.019 71.058C564.628 70.4195 565.233 70.4313 565.835 71.094L566.907 71.6782C567.337 70.962 567.766 70.2465 568.197 69.5303C569.11 70.7883 569.977 70.8499 571.465 70.5559C572.491 70.3528 574.598 68.4915 575.354 68.4923C575.793 68.4923 576.353 69.5626 577.085 69.7715C578.296 70.119 580.177 69.2451 580.609 68.0854C580.838 68.5692 581.067 69.0538 581.296 69.5384C581.868 69.0032 582.442 68.4696 583.01 67.9307ZM539.553 247.818L539.551 247.859L539.592 247.827L539.593 247.826L539.553 247.818ZM538.068 245.293V247.547L538.83 247.686L539.553 247.818L539.561 247.695C539.593 246.61 539.038 245.807 538.068 245.293ZM470.67 236.324C470.432 237.054 470.195 237.785 469.957 238.515C470.758 238.581 471.559 238.646 472.36 238.712C471.796 237.916 471.233 237.12 470.67 236.324ZM376.607 178.562C378.358 179.074 378.334 179.012 378.686 180.633C380.686 189.863 374.497 200.448 379.041 209.222C365.758 209.114 352.447 209.379 339.242 210.937C339.242 205.911 339.407 200.896 339.027 195.878C338.855 193.601 338.598 191.331 338.366 189.059C338.072 186.176 338.165 186.345 340.523 185.848C341.761 185.587 342.204 184.802 343.388 184.323C344.276 183.963 344.675 184.406 345.551 184.529C347.117 184.75 347.136 184.487 348.572 184.181C351.653 183.523 354.27 183.758 356.705 181.455C357.967 181.346 357.558 182.516 358.438 182.401C359.077 182.318 359.484 181.123 360.137 180.838C362.167 179.949 365.545 180.166 367.766 179.888C370.034 179.605 372.042 178.581 374.213 178.277C375.108 178.153 375.76 178.315 376.607 178.562ZM402.23 205.199C401.802 206.795 399.921 204.718 399.892 205.969L399.894 206.08L399.897 206.052C399.997 205.841 401.899 208.361 401.786 208.277C402.808 209.047 403.404 208.975 404.562 208.091C402.489 208.012 402.717 206.732 402.23 205.199ZM408.006 207.454C408.763 207.871 408.994 206.805 409.386 206.155C408.541 205.734 408.416 206.715 408.006 207.454ZM405.665 200.511C405.959 201.548 405.938 202.343 405.938 203.413C407.688 203.165 408.238 203.037 408.27 201.175L407.335 201.763C406.844 200.791 406.735 200.715 405.665 200.511ZM392.124 202.246C392.52 201.991 392.916 201.736 393.312 201.48C392.728 200.638 391.689 201.639 392.124 202.246ZM396.549 186.76C397.054 186.494 397.561 186.229 398.066 185.963C396.754 184.288 396.658 184.851 396.549 186.76ZM394.72 173.473H392.731C393.12 174.753 394.72 175.029 394.72 173.473ZM589.619 99.0058C590.073 99.2712 590.528 99.5365 590.982 99.8012C589.802 100.878 588.35 101.964 589.5 103.226C590.413 104.228 594.677 104.706 595.955 105.071C595.512 105.581 594.598 106.976 593.994 107.327C593.515 107.605 593.078 106.504 592.113 107.6C593.714 108.432 593.284 107.802 592.868 109.565C592.623 110.605 591.745 111.722 591.25 112.656C590.046 114.926 588.813 117.182 587.55 119.42C584.958 124.01 582.229 128.523 579.361 132.946C578.878 130.448 580.26 127.649 580.978 125.238C581.88 122.205 582.784 119.173 583.692 116.141C585.445 110.3 587.018 104.52 589.619 99.0058ZM520.049 106.628C518.754 106.958 517.905 107.174 516.565 107.515C518.511 108.136 518.511 108.136 520.049 106.628ZM577.416 95.3683C575.764 96.1425 575.587 96.7047 576.924 97.6519C577.083 96.9151 577.199 96.3748 577.416 95.3683ZM577.215 77.0495C576.991 78.0325 575.602 77.0869 575.294 77.8053C574.59 79.4488 576.829 79.226 577.637 79.127C577.497 78.4343 577.355 77.7422 577.215 77.0495ZM586.579 75.8018C586.136 77.9035 586.136 77.9035 588.184 78.2195C587.647 77.4102 587.196 76.7313 586.579 75.8018ZM549.434 74.351L549.43 74.3733C549.431 74.3819 549.437 74.3874 549.448 74.3897L549.469 74.3906L549.434 74.351Z" fill="#597EFF"/>
<path fill-rule="evenodd" clip-rule="evenodd" d="M290.48 294.488C290.169 296.088 289.393 296.842 290.207 298.312C290.898 299.56 292.878 300.378 294.207 300.062L290.48 294.488ZM254.464 237.568L247.907 239.817C249.699 241.578 251.407 243.428 253.383 244.991L254.464 237.568ZM362.627 243.33C359.5 241.752 355.997 241.574 352.568 241.372C353.089 244.189 353.611 247.007 354.133 249.824C356.964 247.659 359.796 245.494 362.627 243.33ZM287.53 461.416C286.906 460.31 282.649 451.763 281.764 452.202C281.295 452.435 281.258 457.193 281.189 457.87C280.945 460.277 280.701 462.684 280.457 465.091C282.975 464.201 285.664 463.463 287.53 461.416ZM257.788 392.321C258.431 394.209 259.076 396.098 259.72 397.987C260.026 398.885 260.205 400.21 260.747 401.003C261.451 402.03 260.92 402.635 261.86 401.51C262.869 400.301 263.171 397.077 263.609 395.596C264.275 393.346 264.94 391.098 265.605 388.849C262.469 388.823 260.569 391.407 257.788 392.321ZM191.898 281.084C188.042 283.721 184.139 286.338 180.784 289.616C183.735 289.432 187.844 291.464 190.624 290.51C191.907 290.784 192.331 290.296 191.898 289.046V286.448V281.084ZM249.064 299.742V315.142C252.664 312.072 256.453 309.22 259.917 305.991C256.299 303.908 252.683 301.825 249.064 299.742ZM377.752 339.644C376.616 346.5 376.553 353.555 376.242 360.493C376.187 361.724 375.713 363.578 376.532 364.657C377.355 365.738 379.698 366.337 380.889 366.915C384.24 368.54 387.568 370.213 390.909 371.858C386.523 361.12 382.138 350.382 377.752 339.644ZM462.823 297.483C471.089 293.416 479.356 289.348 487.623 285.281C479.518 281.846 471.412 278.412 463.308 274.978C463.146 282.48 462.984 289.982 462.823 297.483ZM377.734 316.631C379.245 316.74 379.484 310.98 379.734 309.457C380.21 306.565 380.698 303.676 381.198 300.789C382.199 295.017 383.251 289.253 384.358 283.501C386.573 271.997 389.016 260.537 391.723 249.14C388.813 248.615 386.141 248.238 383.3 247.39C381.005 246.705 378.272 247.078 376.224 245.654C375.958 250.995 377.29 256.672 377.783 262.013C378.355 268.192 378.661 274.339 378.611 280.546C378.511 292.575 378.055 304.607 377.734 316.631ZM187.464 479.608C188.897 479.226 186.946 459.57 186.859 456.735C186.61 448.529 186.562 440.316 186.708 432.107C178.99 436.951 171.092 441.413 162.939 445.437C165.034 448.157 166.998 451.091 169.317 453.623C171.706 456.23 174.447 458.367 176.661 461.176C181.118 466.831 184.172 473.252 187.464 479.608ZM373.197 363.329C373.556 357.417 373.888 351.517 374.484 345.622C374.739 343.114 377.161 329.784 373.283 330.097C371.076 330.275 367.207 333.507 365.184 334.639C362.512 336.135 359.837 337.626 357.152 339.099C351.853 342.005 346.52 344.846 341.202 347.717C351.867 352.922 362.532 358.126 373.197 363.329ZM350.171 240.393C345.754 240.063 341.484 239.735 337.126 238.911C334.777 238.467 332.427 238.529 330.065 238.229C328.373 238.014 325.066 236.623 323.49 237.079C321.51 237.65 320.791 247.584 320.518 250.078C320.079 254.093 319.783 258.965 321.576 262.738C325.03 270.01 334.337 264.334 338.865 261.283C342.746 258.668 347.142 256.019 350.585 252.844C353.634 250.031 350.897 244.027 350.171 240.393ZM373.079 319.473C376.407 318.126 376.354 316.434 376.499 312.949C376.675 308.715 376.778 304.475 376.898 300.239C377.114 292.69 377.317 285.137 377.25 277.583C377.185 270.205 376.824 262.838 375.98 255.505C375.682 252.912 375.979 248.484 374.613 246.272C373.367 244.255 369.5 244.233 367.39 244.358C365.011 244.498 363.084 246.76 361.329 248.189C359.384 249.773 355.389 252.003 355.07 254.365C354.713 257.003 356.161 260.767 356.722 263.325C358.773 272.662 361.269 281.908 363.899 291.096C366.626 300.629 369.39 310.258 373.079 319.473ZM288.522 297.123C288.737 295.025 289.517 293.273 288.462 291.275C287.556 289.557 286.081 287.83 284.973 286.204C281.802 281.544 278.245 277.081 274.79 272.63C271.626 268.553 268.384 264.52 265.068 260.566C263.221 258.365 261.316 256.211 259.424 254.049C258.037 252.466 256.723 250.242 254.763 249.413C253.318 258.501 252.124 267.629 251.192 276.784C250.742 281.21 250.354 285.642 250.028 290.079C249.936 291.331 248.966 295.56 249.586 296.726C250.239 297.951 254.227 299.59 255.448 300.341C258.861 302.44 261.513 305.604 264.759 302.152C266.993 299.776 268.793 296.426 271.291 294.352C272.592 293.271 273.817 293.322 275.277 292.68C276.974 291.935 277.028 291.218 279.056 292.232C282.472 293.939 284.548 296.462 288.522 297.123ZM117.466 343.883C117.466 350.175 117.036 355.347 121.297 360.441C125.021 364.892 128.89 365.922 134.128 367.678C137.212 368.712 137.427 367.759 139.926 366.013C142.302 364.355 144.888 363.024 147.23 361.313C152.279 357.626 157.324 353.823 162.23 349.944C163.879 348.64 163.636 349.085 163.386 347.52C163.157 346.094 162.134 344.279 161.575 342.922C160.564 340.469 159.374 338.094 158.182 335.724C156.829 333.035 155.651 330.115 153.971 327.608C153.273 326.567 152.446 325.626 151.632 324.678C149.919 322.68 149.98 322.754 147.931 324.387C143.606 327.834 139.582 331.566 134.714 334.262C128.955 337.452 123.21 340.664 117.466 343.883ZM247.873 295.144C248.498 286.111 249.202 277.128 250.284 268.136C250.84 263.519 251.487 258.915 252.116 254.307C252.372 252.431 253.361 249.283 252.81 247.46C252.269 245.667 249.88 243.959 248.569 242.662C248.216 242.313 247.133 240.849 246.667 240.783C246.168 240.713 244.291 242.089 243.75 242.399C241.835 243.498 239.955 244.654 238.104 245.856C234.615 248.122 231.234 250.553 227.925 253.076C220.988 258.365 214.372 264.057 207.582 269.531C213.803 274.988 221.46 279.226 228.416 283.646C232.529 286.259 236.662 288.844 240.85 291.336C242.973 292.598 245.435 294.528 247.873 295.144ZM162.828 456.672C157.805 459.996 153.007 463.505 147.326 465.639C141.67 467.763 136.08 468.58 130.235 469.843C127.287 470.48 124.516 471.176 121.507 471.622C119.821 471.871 117.212 471.775 115.674 472.488C114.305 472.196 113.818 472.663 114.212 473.889C114.227 474.271 114.242 474.652 114.256 475.033C114.644 480.335 118.049 486.716 121.019 491.027C122.752 493.544 124.961 495.886 127.157 498.002C129.635 500.391 131.064 502.075 134.519 501.075C140.342 499.387 145.482 495.991 151.384 494.493C156.054 493.309 159.932 490.826 164.485 489.541C170.101 487.956 175.658 486.149 181.351 484.825C178.808 479.912 176.533 474.797 173.278 470.297C169.939 465.678 166.257 461.24 162.828 456.672ZM193.639 291.35C204.145 293.443 215.532 295.38 224.935 300.809C228.604 302.927 233.256 306.202 234.33 310.583C235.615 315.821 230.564 319.064 226.345 320.699C221.28 322.662 215.766 323.414 210.399 324.032C207.558 324.36 204.704 324.539 201.85 324.701C199.54 324.833 195.622 324.325 193.51 325.241C192.188 324.977 191.729 325.514 192.135 326.852C192.11 327.332 192.086 327.813 192.062 328.293L191.843 332.611C191.697 335.486 191.551 338.362 191.405 341.237C191.087 347.5 190.77 353.765 190.452 360.028C195.955 356.616 200.39 351.73 205.768 348.089C208.325 346.358 210.864 344.624 213.41 342.899C214.478 342.176 215.131 341.162 216.182 340.489C217.575 339.595 218.811 339.058 220.118 337.887C225.458 333.107 231.396 328.976 237.059 324.588C239.631 322.594 242.447 320.762 244.895 318.623C247.458 316.383 247.104 314.538 247.041 311.318C246.975 307.908 248.225 303.675 247.645 300.387C248.132 299.271 247.758 298.577 246.524 298.304C245.699 297.777 244.875 297.249 244.05 296.721C242.406 295.668 240.762 294.616 239.117 293.564C232.576 289.377 226.036 285.19 219.494 281.003C216.227 278.912 212.96 276.82 209.692 274.729C208.779 274.145 205.803 271.506 204.779 271.584C203.734 271.663 201.922 273.704 201.139 274.353C199.938 275.349 198.772 276.396 197.474 277.268C196.827 277.717 196.152 278.117 195.449 278.47C194.325 278.578 193.934 279.196 194.276 280.323C193.289 283.493 193.832 288.02 193.639 291.35ZM339.327 440.784C336.948 429.653 333.88 416.471 324.601 408.899C315.19 401.22 301.431 404.187 294.07 413.205C290.383 417.723 288.097 423.063 286.399 428.597C284.656 434.277 282.087 441.677 282.557 447.684C282.763 450.317 285.018 453.148 286.306 455.445C287.635 457.818 288.518 461.22 291.651 460.399C296.509 459.124 301.45 456.197 305.996 454.103C310.595 451.984 315.436 450.24 320.204 448.194C323.369 446.835 326.656 445.802 329.813 444.423C332.807 443.118 336.758 442.803 339.327 440.784ZM479.901 374.483C486.537 376.86 489.986 373.055 494.655 368.771C499.078 364.712 503.87 360.809 507.943 356.399C512.145 351.851 515.465 346.476 518.695 341.222C521.961 335.913 526.374 330.179 528.385 324.266C529.407 321.259 529.844 317.926 530.488 314.817C530.643 314.069 531.684 311.284 531.354 310.654C530.898 309.788 528.001 309.696 527.205 309.57C520.874 308.568 514.164 308.518 507.813 309.414C495.525 311.147 485.249 318.045 481.365 330.105C476.812 344.243 479 359.958 479.901 374.483ZM436.877 251.852C436.774 254.3 442.636 254.98 444.156 255.551C447.667 256.869 451.159 258.262 454.568 259.822C461.59 263.034 469.077 265.127 475.801 269.011C490.295 277.383 506.03 283.285 520.672 291.293C522.954 292.542 527.412 295.548 530.018 295.294C531.403 295.159 530.371 296.275 531.27 294.071C531.593 293.278 531.7 292.246 531.881 291.397C532.424 288.851 532.844 286.281 533.453 283.749C534.456 279.582 535.48 275.715 535.902 271.432C536.082 269.617 536.278 267.804 536.299 265.979C536.321 264.128 536.747 259.492 535.912 257.891C535.359 256.828 535.248 257.193 533.865 256.893C533.073 256.721 532.241 256.364 531.478 256.126C529.684 255.568 527.889 255.031 526.008 254.867C524.15 254.704 522.964 254.138 521.221 253.81C519.393 253.465 517.515 253.883 515.653 253.402C513.642 252.882 512.683 252.408 510.582 252.607C508.545 252.799 507.959 252.347 505.965 251.791C504.3 251.328 502.317 251.652 500.582 251.511C498.482 251.34 496.389 251.077 494.287 250.911C484.839 250.163 475.279 251.272 465.809 251.184C460.659 251.137 455.62 251.898 450.478 251.662C445.983 251.457 441.338 251.506 436.877 251.852ZM461.456 301.693C456.86 303.446 452.598 306.291 448.337 308.742C443.423 311.568 438.72 314.571 434.172 317.96C426.527 323.659 417.604 330.492 415.592 340.436C413.527 350.642 422.382 359.004 430.684 363.18C440.152 367.941 451.167 370.403 461.538 372.222C460.429 348.728 460.69 325.194 461.456 301.693ZM323.957 357.006C321.168 357.777 318.808 359.428 316.221 360.65C313.904 361.745 311.662 362.57 309.498 363.979C305.971 366.276 301.883 368.242 298.196 370.018C289.073 374.412 280.216 379.868 271.184 384.737C268.79 386.028 268.006 386.843 267.195 389.5C266.314 392.385 265.485 395.29 264.637 398.186C263.845 400.887 262.583 403.774 262.915 406.625C263.205 409.105 264.487 411.445 265.453 413.707C267.886 419.4 270.524 425.002 273.249 430.559C275.695 435.549 277.926 440.842 281.065 445.429C283.505 432.692 285.694 418.421 295.152 408.716C304.603 399.018 319.679 398.881 328.786 408.892C333.113 413.647 335.746 419.637 337.816 425.655C338.903 428.816 339.633 432.038 340.332 435.303C341.079 438.791 340.896 440.642 344.741 439.585C347.794 438.746 351.032 438.076 354.025 437.118C355.578 436.622 357.092 436.064 357.163 434.836C357.252 433.286 355.166 430.111 354.55 428.652C351.369 421.123 348.188 413.592 345.006 406.063C341.551 397.887 338.095 389.711 334.639 381.536C332.915 377.456 331.19 373.377 329.465 369.298C327.892 365.58 326.582 360.059 323.957 357.006ZM461.714 293.424C461.766 289.706 461.827 285.989 461.876 282.271C461.905 280.055 462.891 275.771 460.964 274.188C459.768 273.208 456.223 272.455 454.711 271.784C451.728 270.46 448.498 269.869 445.497 268.554C433.745 263.401 421.514 259.11 409.414 254.957C406.805 254.061 404.138 253.328 401.511 252.446C400.094 251.97 394.841 249.174 393.53 249.906C392.38 250.546 391.514 258.17 391.146 259.753C390.275 263.5 389.443 267.257 388.643 271.021C385.537 285.632 382.931 300.347 380.509 315.086C386.945 312.64 393.114 308.401 399.196 305.124C405.513 301.721 411.808 298.325 418.168 295C419.963 294.061 426.279 289.746 427.757 291.439C430.128 294.157 424.479 297.344 422.996 298.508C417.259 303.012 411.199 306.937 405.064 310.865C398.708 314.936 392.093 318.533 385.703 322.53C383.397 323.972 379.715 325.729 378.808 328.166C377.642 331.3 378.483 335.11 379.545 338.105C382.153 345.464 385.009 352.732 388.028 359.931C389.402 363.204 390.81 366.463 392.245 369.709C393.954 373.575 396.196 374.393 399.918 376.172C415.778 383.752 432.252 390.946 447.486 399.717C444.936 402.658 438.722 397.828 436.206 396.606C431.547 394.34 426.883 392.083 422.227 389.811C413.553 385.579 404.922 381.262 396.199 377.132C401.79 389.859 408.387 402.121 415.703 413.935C413.856 414.561 414.306 414.594 413.147 413.482C412.17 412.546 411.515 410.711 410.854 409.536C409.486 407.107 408.137 404.669 406.759 402.246C403.901 397.218 400.939 392.266 398.33 387.101C396.367 383.217 394.846 376.427 390.812 374.469C385.786 372.028 380.692 369.652 375.666 367.176C375.666 386.526 377.055 405.446 379.094 424.676C379.198 425.646 380.126 428.508 378.253 428.228C377.409 428.101 377.124 422.795 376.976 421.687C376.295 416.608 375.717 411.516 375.245 406.413C374.303 396.232 373.792 386.009 373.726 375.784C372.519 385.725 371.313 395.667 370.107 405.608L368.392 419.739C368.092 422.213 367.792 424.688 367.491 427.162C367.354 428.299 367.441 429.785 367.042 430.869C366.414 432.575 366.625 432.444 364.657 433.222C366.538 420.277 368.276 407.309 369.814 394.318C370.564 387.979 371.268 381.635 371.916 375.286C372.09 373.578 372.261 371.869 372.428 370.161C372.512 369.29 373.263 366.49 372.846 365.767C372.434 365.05 369.699 364.302 368.912 363.936C367.189 363.136 365.465 362.336 363.743 361.531C358.154 358.916 352.568 356.28 347.04 353.537C344.621 352.337 342.085 350.483 339.455 349.843C336.836 349.206 334.932 351.03 332.693 352.19C330.951 353.092 326.846 354.294 325.682 355.827C324.598 357.253 327.962 362.963 328.846 365.067C331.339 371.005 333.832 376.944 336.325 382.882C341.38 394.922 346.435 406.962 351.49 419.003C352.726 421.945 353.961 424.888 355.197 427.832C355.989 429.718 357.311 435.093 359.232 435.303C360.082 435.396 361.478 434.47 362.3 434.204C363.526 433.808 364.658 433.814 365.889 433.605C368.143 433.222 370.484 432.058 372.698 431.241C378.388 429.142 384.287 427.786 390.023 425.825C395.786 423.856 401.455 421.642 407.195 419.672C412.408 417.883 417.669 415.844 422.677 413.515C427.966 411.054 433.39 408.884 438.543 406.155C447.93 401.186 457.215 396.545 465.509 390.45C467.459 389.017 469.536 387.578 471.465 386.043C473.156 384.697 476.383 383.034 477.535 381.264C477.973 380.589 478.351 379.265 477.838 378.463C477.288 377.603 474.852 377.681 473.714 377.528C470.124 377.046 466.535 376.563 462.946 376.08C463.222 378.443 463.5 380.803 463.7 383.175C463.84 384.849 464.829 389.272 463.496 390.583C461.663 388.84 462.252 383.627 462.088 381.305C462 380.064 462.316 377.634 461.761 376.533C461.152 375.327 459.47 375.343 457.946 375.013C451.483 373.613 445.079 372.439 438.825 370.221C428.26 366.476 415.63 360.152 413.271 347.953C410.81 335.237 421.621 324.219 430.723 317.126C436.173 312.88 441.97 309.204 447.967 305.791C450.77 304.196 453.571 302.601 456.391 301.04C457.417 300.473 460.786 299.304 461.327 298.311C461.881 297.296 461.597 294.58 461.714 293.424ZM235.675 488.719C235.162 488.97 234.649 489.22 234.137 489.471C239.839 473.208 245.488 457.018 250.255 440.449C252.557 432.452 254.888 424.462 257.268 416.488C258.295 413.048 260.818 408.311 260.117 404.748C259.359 400.891 257.539 396.789 256.132 393.121C247.121 398.791 237.921 404.169 228.76 409.582C220.547 414.435 212.195 418.752 203.925 423.554C199.687 426.014 195.315 427.676 190.892 429.686C187.298 431.32 188.693 436.315 188.745 439.651C188.927 451.43 188.918 463.251 189.632 475.013C189.892 479.298 189.557 484.218 192.282 487.784C195.768 492.344 199.001 496.992 202.179 501.793C203.37 503.591 208.373 513.327 210.239 513.113C211.457 512.975 212.578 509.032 213.188 508.098C214.501 506.082 216.42 504.349 218.168 502.726C225.715 495.718 234.089 490.782 242.793 485.66C251.635 480.456 260.684 475.613 269.694 470.679C271.729 469.564 273.921 468.759 275.944 467.62C276.743 467.17 278.327 466.455 278.83 465.651C279.582 464.447 279.327 461.113 279.484 459.674C279.805 456.734 280.381 453.68 280.413 450.718C280.442 447.793 278.685 445.28 277.411 442.729C271.82 431.529 266.388 420.302 261.523 408.763C257.687 422.162 253.66 435.498 249.898 448.917C247.934 455.924 245.566 462.816 243.26 469.715C242.083 473.239 240.899 476.76 239.723 480.285C238.808 483.029 238.332 487.048 235.675 488.719ZM315.979 236.198C313.014 236.231 310.328 235.795 307.429 235.176C306.366 234.949 305.431 234.853 304.353 234.758C303.13 234.65 302.02 233.987 300.949 233.857C300.138 233.76 298.724 234.1 297.951 234.36C296.158 234.961 296.215 234.657 296.14 236.741C296.023 239.96 295.935 243.179 295.759 246.395C295.064 259.055 293.72 271.591 291.88 284.128C291.507 286.662 290.464 289.986 291.037 292.503C291.554 294.772 293.513 297.195 294.806 299.098C297.467 303.012 303.734 304.946 308.142 306.056C312.791 307.227 317.618 307.658 322.034 308.702C323.258 308.991 324.663 308.481 325.967 308.771C327.174 309.04 328.11 309.702 329.225 310.182C331.956 311.355 335.008 311.572 337.828 312.478C343.421 314.275 349.409 314.167 355.007 315.892C356.438 316.333 357.675 317.444 359.052 317.825C360.311 318.172 361.607 317.763 362.925 317.957C365.717 318.369 368.32 319.324 368.963 322.324C370.671 320.971 370.908 321.327 370.613 319.234C370.424 317.893 369.678 316.26 369.269 314.967C368.227 311.669 367.18 308.374 366.139 305.077C364.08 298.551 362.034 292.021 360.136 285.448C358.438 279.568 356.894 273.643 355.545 267.673C354.858 264.637 354.285 261.588 353.697 258.537C353.525 257.651 353.695 256.243 352.806 255.654C352 255.12 350.117 257.037 349.266 257.655C343.316 261.969 329.67 274.727 322.232 267.201C318.226 263.148 318.461 256.024 318.896 250.788C319.162 247.57 319.727 244.393 320.358 241.229C320.516 240.44 321.48 237.903 321.127 237.341C320.746 236.736 316.775 236.376 315.979 236.198ZM525.026 306.614C526.61 306.791 528.193 306.969 529.776 307.148C529.631 305.867 529.762 303.941 529.277 302.748C528.607 301.1 526.967 300.916 525.163 300.232C522.31 299.153 519.4 298.214 516.578 297.051C510.453 294.528 504.357 291.97 498.229 289.447C495.543 288.341 492.388 286.531 489.471 287.434C486.326 288.409 483.222 290.395 480.282 291.848C476.953 293.495 473.626 295.145 470.299 296.795C468.739 297.569 467.178 298.343 465.618 299.117C463.167 300.332 462.841 300.455 462.647 303.231C461.662 317.433 461.736 332.185 462.165 346.405C462.385 353.662 462.138 360.958 462.658 368.203C462.699 368.76 462.657 371.904 463.006 372.333C463.496 372.937 466.951 373.141 467.777 373.292C470.995 373.881 474.236 374.077 477.488 374.368C476.722 357.85 473.908 338.323 482.383 323.214C490.896 308.035 509.092 304.747 525.026 306.614ZM377.035 144.113C377.99 141.937 379.633 140.1 381.038 138.191C381.798 137.159 383.112 135.925 383.598 134.718C384.29 132.999 384.286 133.367 383.252 131.862C382.274 130.44 382.294 130.333 380.783 130.079C379.51 129.865 378.154 130.228 376.854 129.995C375.539 129.759 371.926 128.651 372.754 126.557C372.719 126.649 374.809 125.617 374.971 125.438C375.497 124.866 375.663 123.645 375.922 122.953C376.757 120.735 377.05 119.299 376.12 116.937C374.73 113.41 369.235 112.366 365.815 113.553C364.105 114.145 363.13 115.402 362.361 116.981C361.873 117.984 361.759 119.433 361.128 120.306C360.176 121.621 360.117 121.475 358.143 121.242C355.63 120.947 353.569 119.981 351.188 119.307C348.595 118.572 346.908 120.066 344.642 121.271C340.551 123.447 336.599 124.202 332.016 124.547C326.913 124.932 322.183 123.7 317.13 123.383C318.441 129.427 321.831 134.334 324.541 139.807C325.017 140.77 325.787 141.754 325.805 142.867C325.824 143.916 324.307 145.344 324.478 146.212C324.843 148.063 328.915 149.546 330.457 150.067C334.82 151.54 339.788 154.423 344.59 153.265C347.223 152.63 348.639 148.469 351.117 148.163C354.441 147.751 351.954 152.035 351.337 153.509C356.054 154.226 362.034 153.618 366.549 152.017C368.813 151.215 370.73 150.018 372.795 148.831C375.368 147.353 375.902 146.947 377.035 144.113ZM294.481 234.069C286.07 234.209 277.537 232.997 269.107 234.11C267.155 234.368 265.228 234.783 263.309 235.224C261.929 235.541 257.549 235.81 256.629 236.836C255.791 237.772 255.785 242.082 255.612 243.297C255.228 246.002 255.33 246.936 257.054 249.027C262.724 255.909 268.63 262.586 274.217 269.544C279.584 276.229 283.99 283.697 289.415 290.287C292.313 281.845 292.486 271.715 293.282 262.864C293.706 258.144 294.092 253.421 294.454 248.697C294.799 244.198 295.972 238.359 294.481 234.069ZM185.621 323.033C186.594 323.033 188.145 323.338 189.091 323.033C190.391 323.447 190.825 322.959 190.395 321.569C190.416 321.083 190.436 320.596 190.458 320.109C190.593 316.974 190.742 313.839 190.888 310.704C191.021 307.837 191.15 304.97 191.263 302.103C191.341 300.146 192.329 295.294 191.539 293.526C191.008 292.338 189.75 292.608 188.22 292.434C186.765 292.269 185.305 292.117 183.858 291.891C182.021 291.604 179.985 290.946 178.116 291.358C176.238 291.772 174.872 293.507 173.399 294.611C171.067 296.357 168.684 298.038 166.332 299.756C162.058 302.88 157.827 306.062 153.588 309.234C151.838 310.543 151.502 310.089 152.355 311.971C152.883 313.134 154.083 314.45 154.814 315.5C156.27 317.592 157.719 320.764 159.586 322.462C162.303 324.932 169.84 323.363 173.449 323.346C177.563 323.325 181.53 323.389 185.621 323.033ZM196.272 322.828C199.841 322.478 203.446 322.629 206.992 322.149C210.847 321.627 214.675 320.853 218.523 320.273C222.36 319.696 234.031 317.361 232.879 311.63C231.661 305.572 222.727 301.943 217.783 299.907C210.062 296.726 202.001 295.023 193.879 293.225C192.86 298.656 193.006 304.486 192.82 309.989C192.719 312.978 192.631 315.97 192.632 318.962C192.632 319.682 192.385 321.176 192.679 321.845C193.369 323.42 194.172 322.828 196.272 322.828ZM184.537 325.43H161.762C165.133 332.414 168.319 339.528 171.952 346.379C175.571 353.204 180.231 359.634 184.337 366.185C185.377 365.053 187.036 363.824 187.742 362.476C188.525 360.985 188.503 358.791 188.632 357.064C188.964 352.584 189.116 348.063 189.229 343.573C189.327 339.64 189.5 335.733 189.802 331.81C189.868 330.949 190.816 326.48 190.274 325.745C189.79 325.091 185.533 325.437 184.537 325.43ZM278.335 188.317C282.177 188.317 286.024 188.268 289.866 188.333C293.352 188.392 297.894 187.784 301.088 189.581C307.594 193.241 294.588 202.639 291.951 205.005C296.215 206.552 302.87 203.482 307.045 202.075C312.207 200.336 317.471 199.168 322.737 197.806C324.052 197.466 329.699 196.8 330.412 195.791C331.12 194.79 329.535 188.753 329.376 187.48C329.227 186.283 329.353 184.417 328.855 183.291C329.16 181.938 328.685 181.464 327.431 181.87C326.997 181.868 326.565 181.866 326.131 181.865C322.928 181.89 319.721 182.039 316.52 182.146C305.516 182.512 294.779 183.001 283.869 184.72C278.797 185.519 273.68 186.502 268.635 187.483C264.387 188.308 265.102 189.001 269.069 189.012C272.172 189.02 275.248 188.558 278.335 188.317ZM593.993 107.327C594.647 106.576 595.302 105.823 595.955 105.071C594.362 104.616 592.769 104.16 591.176 103.705C589.482 103.221 588.57 103.332 589.324 101.437C590.267 99.0645 594.576 98.7925 596.648 98.7031C603.779 98.3945 611.271 100.666 618.045 102.666C621.351 103.643 623.942 105.153 626.739 107.163C627.96 108.04 629.37 108.864 630.439 109.918C631.549 111.014 632.011 112.417 633.097 113.515C634.877 115.315 637.156 116.212 638.029 118.811C639.031 121.794 637.835 125.208 636.352 127.809C634.847 130.449 632.613 132.445 630.798 134.844C629.357 136.747 626.349 141.947 631.05 141.344C633.535 141.025 636.76 136.782 638.549 135.092C641.113 132.667 643.636 130.187 646.351 127.929C648.76 125.927 651.534 123.875 654.754 123.523C658.148 123.152 659.844 125.326 661.499 127.97C663.059 130.464 663.309 132.899 664.406 135.451C664.936 136.682 665.61 137.368 665.921 138.71C666.399 140.774 666.449 143.025 666.693 145.129C667.077 148.433 667.438 151.031 666.798 154.268C666.199 157.298 666.036 160.516 665.531 163.599C664.96 167.09 664.485 170.597 663.921 174.089C663.445 177.048 661.63 181.261 663.41 184.013C667.686 190.624 672.816 180.891 674.167 177.255C676.541 170.866 677.75 163.881 679.845 157.36C680.967 153.873 681.946 150.353 682.589 146.742C683.122 143.757 682.86 140.119 684.494 137.459C685.765 135.394 688.025 133.825 690.506 134.455C693.61 135.245 694.803 139.736 695.716 142.466C698.126 149.666 697.239 156.151 696.258 163.494C695.804 166.894 695.37 170.299 694.59 173.643C694.064 175.898 691.883 180.464 695.125 181.69C699.721 183.431 704.592 170.234 705.902 167.254C709.331 159.449 710.644 151.708 712.058 143.345C712.382 141.422 712.63 139.458 713.116 137.569C713.539 135.924 714.801 134.261 714.915 132.616C715.028 130.969 713.939 129.821 715.055 128.204C715.984 126.859 717.662 126.778 719.178 126.766C722.739 126.738 726.146 128.303 729.459 129.439C732.542 130.495 737.103 132.813 740.426 132.067C729.997 121.469 719.594 110.991 707.156 102.737C701.38 98.904 695.599 95.2203 689.356 92.0944C683.033 88.9283 675.786 86.7899 669.013 84.8743C665.33 83.8319 661.667 82.6509 658.03 81.4553C654.792 80.3909 651.532 80.1893 648.362 78.9819C641.473 76.3597 633.776 75.3436 626.644 73.4845C623.495 72.6642 620.311 71.9605 617.154 71.2003C613.836 70.4012 609.175 69.0135 605.795 69.1484C602.908 69.2635 601.934 72.5748 600.545 74.8781C598.529 78.2217 596.81 81.6957 595.224 85.2621C591.976 92.5695 588.548 100.119 586.225 107.753C584.949 111.945 583.69 116.141 582.437 120.339C581.353 123.974 578.64 129.217 579.361 132.947C584.703 124.708 589.677 116.151 593.993 107.327ZM345.312 181.723C342.478 181.852 339.644 181.98 336.81 182.109C339.636 191.404 339.242 201.302 339.242 210.937C352.447 209.379 365.758 209.114 379.041 209.222C376.6 204.509 377.547 198.396 378.242 193.351C378.649 190.397 378.876 187.552 378.817 184.572C378.761 181.777 379.566 179.427 376.607 178.562C374.26 177.877 372.776 179.019 370.54 179.54C367.861 180.164 364.944 180.24 362.217 180.579C356.542 181.285 351.069 181.699 345.312 181.723ZM269.221 199.825C277.731 197.462 286.775 198.333 295.327 196.537C293.382 194.76 289.717 195.813 287.134 195.961C284.197 196.128 281.262 196.251 278.325 196.394C275.46 196.534 267.515 196.317 266.481 199.964C267.394 199.918 268.308 199.871 269.221 199.825ZM580.603 68.106C569.468 69.0839 557.805 68.9321 546.75 70.877C534.089 73.1041 520.89 74.5013 508.614 78.4262C496.573 82.2771 484.291 84.9726 472.42 89.4942C460.88 93.8897 449.765 98.566 438.897 104.445C433.578 107.323 428.402 110.373 423.332 113.678C418.381 116.904 412.957 119.549 408.16 122.969C403.89 126.013 400.207 128.805 396.483 132.535C392.503 136.523 388.631 140.619 384.647 144.6C381.322 147.922 383.427 156.043 383.638 160.463C383.93 166.592 384.435 172.634 385.186 178.722C385.9 184.524 386.635 190.759 385.691 196.548C385.295 198.982 383.927 203.186 384.58 205.616C385.102 207.561 388.57 208.988 390.338 209.622C392.502 210.398 394.712 210.071 396.932 211.057C399.411 212.161 401.501 213.536 404.134 214.116C407.38 214.83 411.029 215.432 414.364 215.454C417.448 215.473 420.543 216.473 423.618 217.089C428.621 218.092 433.504 218.404 433.192 224.443C432.833 231.41 430.071 237.388 428.426 244.002C430.65 244.002 432.201 244.144 434.237 243.354C436.614 242.434 439.151 242.189 441.649 241.792C447.168 240.913 452.55 240.631 458.106 240.07C468.283 239.043 478.638 239.166 488.824 239.274C493.98 239.328 499.575 239.727 504.661 240.531C509.878 241.355 515.282 241.871 520.339 243.452C524.605 244.786 529.009 245.695 533.361 246.874C535.322 247.405 537.671 247.836 539.524 248.43C542.209 249.291 543.644 251.127 546.744 251.086C545.872 245.338 543.823 240.007 542.586 234.307C541.296 228.354 538.721 223.088 535.879 217.472C534.611 214.968 533.673 212.309 532.45 209.783C531.091 206.973 529.18 204.646 527.539 202.018C524.18 196.644 520.596 191.475 517.297 186.062C514.417 181.337 511.127 176.807 507.974 172.246C504.508 167.231 499.692 163.446 495.758 158.845C494.098 156.902 492.517 155.096 490.657 153.313C488.944 151.671 486.513 148.036 483.891 147.866C482.383 147.768 479.772 148.617 478.333 149.072C475.671 149.916 472.848 150.466 470.099 151.208C467.091 152.021 464.135 153.079 461.122 153.852C459.916 154.16 458.484 154.014 457.341 154.363C456.146 154.73 455.191 155.537 453.884 155.907C447.434 157.738 441.023 159.817 434.526 161.485C427.837 163.201 421.045 164.663 414.563 167.095C413.326 167.559 411.951 168.655 411.001 167.935C410.293 167.397 409.836 165.877 410.022 164.99C410.644 162.037 415.363 160.971 417.635 159.785C423.724 156.608 429.773 154.368 436.316 152.21C439.54 151.149 442.751 150.016 446.019 149.098C448.751 148.332 451.595 147.036 454.388 146.644C456.872 146.295 458.637 145.316 461.103 144.449C464.736 143.171 468.472 142.122 472.164 141.03C478.474 139.164 485.162 138.379 491.618 137.128C506.576 134.229 522.106 132.777 537.368 132.957C545.063 133.048 553.113 132.823 560.717 134.089C562.551 134.394 566.406 134.336 567.67 135.983C568.349 136.867 567.981 138.183 568.156 139.141C568.45 140.758 569.331 141.512 570.095 142.985C571.719 135.012 573.584 127.209 575.681 119.352C577.576 112.242 579.33 105.003 581.863 97.9927C584.543 90.5755 587.792 82.711 591.798 75.9228C592.622 74.5255 594.678 72.3058 594.855 70.7428C595.038 69.1301 592.78 67.8809 591.229 67.7013C587.748 67.2988 584.022 67.9879 580.603 68.106ZM655.411 182.03C656.544 170.97 659.856 159.401 658.006 148.297C657.223 143.597 656.611 139.11 654.262 134.866C653.074 132.721 652.598 131.145 650.331 132.41C648.035 133.691 645.922 136.854 644.019 138.687C640.522 142.057 636.859 145.528 632.671 148.03C629.372 150.001 622.82 151.869 620.34 147.606C617.977 143.543 621.129 137.874 623.391 134.522C625.98 130.687 630.885 127.135 628.132 122.404C626.948 120.368 625.244 119.834 623.452 118.498C621.902 117.341 620.602 115.842 619.051 114.665C614.557 111.253 609.628 109.791 604.439 107.841C602.043 106.94 601.728 106.093 600.344 108.152C598.841 110.388 598.017 113.523 596.93 115.996C594.754 120.951 592.432 125.646 589.625 130.266C586.793 134.928 584.283 139.799 581.606 144.553C580.596 146.347 579.646 148.17 578.452 149.854C577.802 150.771 576.997 151.587 576.469 152.59C575.687 154.073 576.035 155.425 575.549 156.901C573.45 163.272 570.388 154.379 569.803 152.3C569.138 149.935 567.533 148.091 566.493 145.885C565.634 144.064 565.048 141.356 562.974 140.499C561.275 139.796 559.085 140.76 557.351 140.854C554.165 141.027 550.956 140.769 547.756 140.969C544.764 141.155 541.778 141.442 538.787 141.625C535.793 141.809 532.803 141.303 529.848 141.618C524.546 142.184 519.125 142.093 513.835 142.878C507.627 143.797 501.483 144.778 495.257 145.543C496.704 148.281 499.702 149.469 502.073 151.422C504.192 153.168 505.87 155.184 508.004 156.845C510.17 158.531 511.457 161.025 513.249 163.051C515.005 165.036 516.631 166.7 518.17 168.92C525.596 179.642 533.256 189.968 539.381 201.557C542.481 207.422 545.442 213.697 547.56 219.99C549.832 226.739 550.947 233.978 552.297 240.957C552.969 244.435 553.321 247.371 552.584 250.869C552.391 251.702 552.19 252.533 551.981 253.362C551.335 254.355 551.574 254.999 552.699 255.294C553.356 256.254 554.254 256.614 554.312 257.926C554.356 258.923 553.801 260.078 552.943 260.64C551.287 261.725 551.287 260.26 549.58 260.585C548.94 260.931 548.3 261.277 547.66 261.623C547.323 261.109 546.975 260.6 546.618 260.099C545.53 259.063 544.664 259.157 543.242 258.905C543.965 267.238 542.812 274.678 540.979 282.806C540.097 286.715 538.586 290.541 537.825 294.457C536.974 298.831 538.833 300.823 541.709 303.741C540.979 304.122 539.7 304.536 539.098 305.106C538.14 306.014 538.385 306.126 538.386 307.547C538.387 310.149 537.888 312.715 537.48 315.274C536.724 320.013 536.033 324.917 534.403 329.455C531.442 337.697 526.655 346.256 521.779 353.516C519.05 357.579 516.314 362.194 512.894 365.7C509.461 369.217 506.058 372.767 502.633 376.295C495.893 383.24 488.527 388.038 480.452 393.238C477.254 395.298 473.886 397.554 471.136 400.118C468.341 402.724 464.624 404.548 461.283 406.441C459.793 407.285 458.732 408.498 457.123 409.191C455.611 409.841 454.555 410.054 453.287 410.907C450.141 413.024 446.744 414.834 443.28 416.431C439.055 418.378 434.898 420.643 430.559 422.305C428.583 423.062 426.723 423.888 424.808 424.773C422.736 425.731 420.501 426.36 418.376 427.382C416.58 428.244 414.761 428.746 412.933 429.451C411.44 430.027 410.268 430.96 408.746 431.562C405.584 432.812 402.706 433.485 399.634 434.959C395.553 436.917 390.716 437.83 386.416 439.239C381.616 440.813 376.636 442.379 371.71 443.495C369.614 443.97 367.828 444.591 365.804 445.31C364.485 445.778 362.972 446.035 361.511 446.48C357.473 447.712 353.438 448.9 349.378 449.947C341.448 451.995 333.346 454.453 325.655 457.232C321.622 458.689 317.531 460.443 313.663 462.298C309.289 464.395 304.577 465.605 300.188 467.681C291.708 471.69 283.258 475.817 274.877 480.027C270.475 482.238 266.136 484.515 261.839 486.92C260.279 487.792 258.574 488.152 257.025 489.008C254.999 490.127 253.337 491.77 251.262 492.879C243.264 497.154 235.101 501.182 227.755 506.591C223.91 509.422 219.779 512.322 216.457 515.769C215.361 516.906 213.461 518.666 213.262 520.317C212.97 522.758 213.244 520.512 214.088 522.017C215.258 522.16 215.522 522.61 214.885 523.366C214.59 523.721 214.213 523.902 213.754 523.909C212.276 524.209 209.513 522.642 208.326 521.987C206.268 520.852 205.176 519.417 203.855 517.512C200.985 513.379 198.185 509.208 195.23 505.133C192.572 501.469 189.971 497.434 186.946 494.068C184.896 491.787 184.742 492.783 182.461 494.07C180.764 495.026 178.793 495.435 177.034 496.336C170.334 499.771 162.968 502.309 156.095 504.703C154.529 505.248 153.695 506.113 152.32 506.866C150.568 507.826 148.348 508.295 146.475 508.977C141.314 510.855 136.178 512.805 131.053 514.781C127.096 516.308 123.294 517.511 120.197 520.328C118.964 521.45 117.472 522.253 116.2 523.387C114.717 524.706 112.712 526.853 110.846 527.599L109.71 528.487C108.94 527.952 108.171 527.418 107.399 526.885C106.635 526.355 105.869 525.827 105.106 525.296C103.189 523.962 101.287 522.61 99.3816 521.259C95.0611 518.194 90.7127 515.159 86.6939 511.699C79.555 505.555 72.1473 499.741 64.6824 493.986C56.8477 487.946 49.2093 481.626 41.1058 475.949C33.761 470.803 25.7476 466.458 18.6263 461.027C15.0418 458.293 11.4661 455.542 7.80619 452.894C7.60697 452.75 4.62895 450.921 4.59906 450.718C4.54838 450.344 5.52836 449.369 5.81767 449.055C7.18729 447.565 8.70487 446.238 10.0694 444.731C16.429 437.712 24.7325 437.957 33.5091 437.626C37.4891 437.475 41.8052 439.312 45.5852 440.563C50.2076 442.092 54.6665 444.337 59.1314 446.275C68.3328 450.27 77.8294 453.683 87.1238 457.383C90.7786 458.837 94.4195 459.547 98.135 460.547C101.905 461.562 105.788 460.594 109.82 460.667C111.913 460.704 113.891 460.827 115.998 460.708C117.249 460.638 118.69 460.4 119.926 460.421C120.927 460.439 121.967 460.852 122.888 460.748C126.921 460.29 131.182 459.649 135.342 459.124C139.472 458.603 143.734 458.344 147.81 457.528C149.862 457.117 151.887 456.537 153.862 455.84C155.576 455.236 158.692 454.549 160.098 453.324C161.356 452.228 160.806 452.213 160.105 450.425C159.827 449.718 159.54 448.647 159.128 447.966C158.016 446.126 156.94 445.547 157.588 443.245C158.728 439.186 162.615 436.596 165.943 434.597C173.438 430.095 180.294 424.322 188.186 420.503C204.449 412.636 219.27 402.416 235.13 393.776C252.563 384.279 269.054 373.135 286.73 364.039C303.183 355.572 319.561 347.056 336.15 338.856C344.251 334.853 353.413 331.19 360.762 325.942C356.69 325.436 352.606 324.783 348.52 324.421C346.625 324.253 344.706 324.409 342.822 324.107C340.714 323.77 338.721 322.917 336.617 322.562C333 321.951 329.747 320.709 326.127 320.252C322.245 319.761 318.443 318.619 314.543 318.299C306.385 317.63 299.022 314.618 291.869 310.823C290.099 309.883 288.645 310.421 286.948 309.781C286.014 309.43 285.021 308.026 283.972 307.271C281.081 305.194 278.599 302.741 275.852 300.471C270.076 313.445 258.735 322.269 247.912 330.973C242.429 335.38 236.479 339.116 230.941 343.441C226.647 346.794 222.748 349.795 218.164 352.461C213.763 355.02 209.629 358.475 205.433 361.549C202.589 363.633 199.255 365.205 196.231 367.014C193.76 368.492 188.936 370.696 188.262 373.377C187.71 375.568 188.786 378.175 185.446 377.167C182.456 376.266 180.288 372.943 178.546 370.603C174.042 364.546 169.84 358.284 165.658 352.004C163.411 356.393 159.537 359.553 155.955 362.806C153.779 364.783 151.521 366.618 149.17 368.382C148.031 369.238 146.878 370.078 145.736 370.932C145.286 371.269 144.267 371.787 143.975 372.262C143.294 373.374 143.708 372.87 143.814 374.214C143.98 376.318 144.681 377.974 143.491 379.991C142.373 381.885 139.937 382.693 138.229 383.986C134.165 387.065 129.892 390.336 125.384 392.74C124.361 393.285 123.393 393.758 122.44 394.426C120.85 395.54 121.14 395.944 119.537 394.876C117.03 393.206 114.864 390.432 112.602 388.418C107.862 384.197 103.069 380.029 98.2141 375.941C88.9629 368.148 79.4385 360.743 70.3023 352.812C61.6202 345.274 52.3125 338.786 43.3492 331.62C40.8904 329.654 38.4617 327.649 36.0352 325.643C33.8745 323.858 30.3684 321.89 28.7703 319.606C26.4493 316.288 35.5284 311.754 38.2676 311.079C42.991 309.916 49.0987 310.581 53.8294 311.535C58.7952 312.536 63.8518 315.883 68.4888 317.968C73.7154 320.317 79.0386 322.349 84.304 324.567C86.6521 325.556 89.1416 326.345 91.3213 327.678C93.6343 329.092 95.699 330.704 98.1585 331.89C100.993 333.255 103.938 334.529 106.919 335.54C108.27 335.997 109.723 336.457 111.143 336.641C113.153 336.903 112.88 335.977 114.549 335.459C115.968 335.019 116.305 336.181 117.581 336.504C118.782 336.809 119.68 336.501 120.72 335.854C123.039 334.414 125.103 332.427 127.422 330.927C129.574 329.535 131.947 328.234 133.964 326.658C134.863 325.956 135.528 324.994 136.414 324.28C137.835 323.137 138.398 323.59 140.056 322.803C141.412 322.159 142.641 320.959 143.931 320.165C144.732 319.671 146.673 319.048 147.19 318.25C148.546 316.154 146.231 314.698 144.158 315.316C143.847 313.506 142.252 309.209 142.941 307.512C143.55 306.011 145.15 306.291 146.495 305.497C151.552 302.509 155.284 297.079 160.014 293.569C164.474 290.259 168.409 286.308 172.827 282.937C176.611 280.049 180.747 277.23 184.193 274.116C188.268 270.434 193.484 267.57 197.914 264.284C202.49 260.89 206.742 257.113 211.269 253.68C215.625 250.377 219.903 246.928 224.379 243.783C228.401 240.957 232.618 238.377 236.557 235.512C238.715 233.943 241.074 232.565 243.537 231.535C245.986 230.51 248.128 229.309 250.52 228.205C255.273 226.013 261.461 224.498 266.629 223.869C272.312 223.179 278.017 222.559 283.753 222.554C286.809 222.552 289.777 223.134 292.814 223.319C295.605 223.487 298.622 224.194 301.393 224.101C302.648 224.059 303.738 223.528 304.953 223.699C305.968 223.842 306.85 224.455 307.939 224.562C310.362 224.801 312.799 224.563 315.25 224.877C320.88 225.596 326.517 226.623 332.159 227.195C338.17 227.804 344.129 227.919 350.109 228.945C355.952 229.947 361.832 230.986 367.641 232.145C379.988 234.608 392.463 237.013 404.614 240.671C407.454 241.525 410.312 242.338 413.042 243.511C414.367 244.079 415.64 244.768 417.022 245.193C419.001 245.801 419.391 246.032 420.41 244.371C422.165 241.51 423.132 237.727 424.406 234.615C425.665 231.535 427.194 228.431 427.924 225.215C425.801 224.879 423.122 225.533 420.932 225.607C418.253 225.7 415.604 225.642 412.928 225.626C407.536 225.594 403.319 223.999 398.216 222.325C393.916 220.914 388.189 220.105 384.909 216.874C383.15 215.141 382.565 214.836 379.92 215.147C377.253 215.46 374.618 216 371.925 216.089C361.775 216.426 351.672 218.199 341.476 218.549C338.717 218.644 331.819 219.952 332.271 215.27C332.364 214.298 333.108 213.455 333.253 212.455C333.409 211.382 333.141 210.293 332.973 209.245C332.574 206.765 332.157 204.287 331.759 201.806C322.462 204.792 313.047 207.212 303.573 209.578C299.644 210.559 293.332 212.815 289.272 211.578C285.347 210.382 287.621 204.847 288.843 202.198C281.045 203.979 272.728 206.893 264.776 207.561C262.356 207.765 260.002 208.301 259.439 205.374C258.99 203.041 260.673 200.189 261.532 198.14C255.429 197.594 249.11 197.646 250.258 189.817C251.311 182.634 257.273 181.204 263.621 179.891C271.455 178.27 279.457 177.73 287.343 176.419C294.204 175.277 301.69 174.005 308.698 174.581C312.407 174.885 316.139 174.955 319.847 175.299C321.597 175.461 323.279 175.732 324.973 176.21C326.535 176.65 328.72 178.014 330.321 178.038C332.738 178.076 335.651 174.805 338.251 174.049C341.47 173.113 344.94 172.942 348.267 172.713C352.037 172.454 355.814 172.31 359.581 172.004C360.44 171.935 363.687 172.147 364.365 171.643C365.353 170.91 364.696 167.146 364.627 165.6C364.562 164.17 364.838 161.491 363.847 160.93C362.917 160.404 360.206 161.126 359.29 161.273C355.496 161.881 351.89 161.811 348.109 161.657C346.363 161.586 344.686 162.051 342.957 161.822C341.101 161.576 339.234 160.952 337.386 160.604C333.383 159.851 329.736 158.914 326.287 156.67C323.26 154.7 319.677 153.366 317.985 149.917C316.745 147.39 316.241 142.515 319.885 141.797C317.404 138.214 315.691 134.19 314.376 130.05C314.137 129.3 313.979 128.169 313.622 127.514C312.363 125.199 313.532 127.253 311.734 126.327C309.958 125.413 308.678 124.689 307.29 123.099C305.077 120.563 304.146 117.443 303.866 114.139C303.486 109.652 302.777 104.592 303.432 100.127C304.565 92.3942 310.212 86.5839 315.95 81.9069C319.065 79.3675 323.166 78.4218 326.819 76.8809C330.346 75.3927 334.285 73.8327 338.001 73.4838C341.355 73.1686 344.624 72.0726 347.982 71.6306C352.596 71.0221 357.215 71.2494 361.852 71.0647C363.987 70.9796 366.116 70.6783 368.241 70.4489C369.44 70.3191 371.469 70.4577 372.568 69.9819C374.366 69.2019 373.395 70.8396 374.037 68.4542C375.259 63.9164 376.256 59.6609 378.107 55.2515C379.831 51.1433 381.925 47.2155 384.693 43.7033C387.289 40.4089 390.655 37.9992 393.713 35.185C395.979 33.1001 398.549 31.2168 401.134 29.5307C402.612 28.5667 404.258 28.0455 405.702 27.1944C407.495 26.1388 409.077 25.3383 411.094 24.6917C415.422 23.3047 419.718 21.832 424.315 21.9045C429.272 21.9823 434.241 20.8277 439.066 22.2916C448.025 25.0106 452.416 34.7297 452.265 43.6549C455.33 42.8896 458.008 41.4161 461.254 41.29C464.244 41.1742 467.796 41.4337 470.733 41.9894C476.433 43.0677 482.295 46.239 485.694 51.0451C488.936 55.629 489.42 61.715 487.428 66.9154C486.475 69.405 484.962 71.6196 483.351 73.7228C482.17 75.2652 479.535 76.9725 479.41 79.0391C501.472 72.3644 523.623 67.6595 546.445 64.6143C558.013 63.0712 569.601 63.8439 581.181 62.962C586.128 62.5852 591.504 63.1122 596.618 63.132C598.777 63.1408 600.457 62.8403 602.022 61.4416C603.607 60.0267 604.874 58.2937 606.721 60.3361C607.192 60.8573 607.291 62.1182 607.926 62.5104C608.695 62.9854 610.931 62.6592 611.851 62.7156C615.067 62.9121 618.205 63.4583 621.363 64.0872C627.156 65.2418 632.912 66.4089 638.637 67.8743C649.537 70.6651 660.292 73.3643 671.035 76.6771C681.996 80.0573 693.073 84.2278 703.18 89.6995C708.075 92.3495 712.965 95.6579 717.466 98.9362C719.558 100.461 721.434 102.11 723.253 103.949C725.199 105.914 727.579 107.241 729.506 109.221C733.698 113.527 737.872 118.096 741.675 122.762C743.66 125.198 745.481 127.767 747.249 130.364C748.49 132.186 751.759 135.521 751.006 137.874C750.605 139.131 749.203 140.01 747.919 139.702C747.491 139.599 747.133 139.042 746.768 138.989C745.528 138.813 746.656 138.376 745.209 138.964C742.333 140.131 741.416 142.474 737.763 141.941C731.553 141.034 725.711 138.099 720.064 135.539C718.451 141.712 718.222 148.111 716.81 154.358C715.433 160.452 713.137 166.263 710.365 171.853C707.933 176.757 704.811 181.984 700.507 185.489C697.222 188.163 689.117 191.486 686.704 185.792C685.679 183.373 687.204 179.616 687.635 177.127C688.214 173.787 688.853 170.438 689.202 167.064C689.484 164.323 689.627 161.566 689.891 158.822C690.119 156.461 690.749 151.394 689.422 149.309C688.623 148.052 688.553 149.285 688.088 150.54C687.524 152.061 687.056 153.569 686.643 155.136C685.766 158.465 684.975 161.817 684.145 165.157C682.663 171.126 681.03 176.964 677.941 182.331C675.197 187.097 671.336 192.325 665.468 193.106C662.72 193.471 659.139 192.214 657.042 190.361C654.689 188.283 655.392 184.855 655.411 182.03Z" fill="black"/>
<path fill-rule="evenodd" clip-rule="evenodd" d="M521.416 425.763C524.641 425.126 527.355 422.55 529.989 420.615C533.348 418.146 536.535 415.457 539.796 412.864C545.942 407.978 551.519 402.619 556.821 396.791C567.284 385.294 575.16 370.493 578.741 355.372C580.552 347.721 582.793 338.756 581.765 330.849C581.407 328.103 580.862 327.599 578.171 327.287C576.956 327.146 573.872 326.796 572.778 327.274C569.942 328.515 568.411 333.792 567.57 336.444C565.086 344.275 563.624 352.385 561.379 360.28C559.179 368.019 555.633 375.871 552.126 383.107C544.322 399.208 533.477 412.678 521.416 425.763ZM585.388 336.868C583.459 358.794 577.377 379.683 563.74 397.34C557.258 405.733 549.635 413.035 541.373 419.668C532.842 426.517 524.129 432.968 514.448 438.076C511.873 439.436 509.293 440.79 506.685 442.087C505.239 442.806 501.589 445.454 499.922 445.036C498.586 444.699 498.237 443.665 498.028 442.319C497.561 439.298 499.522 437.79 501.504 435.85C509.469 428.056 517.459 420.234 524.907 411.943C539.614 395.569 550.663 375.962 556.804 354.805C558.696 348.291 560.384 341.704 562.426 335.236C563.67 331.296 565.434 324.282 569.568 322.317C571.784 321.264 574.367 322.289 576.698 321.657C578.884 321.065 580.333 319.857 582.196 321.883C585.466 325.439 585.611 332.412 585.388 336.868Z" fill="black"/>
<path fill-rule="evenodd" clip-rule="evenodd" d="M2.71739 463.376C1.08482 463.955 1.01671 464.529 0.268905 462.848C-0.10756 462.001 -0.00575337 460.84 0.0828697 459.96C0.295272 457.852 1.40416 455.904 2.31529 454.035C10.8905 461.115 19.7945 467.495 28.9894 473.751C38.8229 480.44 48.2118 487.878 57.5121 495.288C65.8404 501.924 74.2692 508.364 82.5104 515.084C86.4852 518.325 91.0167 520.836 94.7953 524.176C97.8487 526.875 102.913 528.085 105.516 531.26C101.391 533.727 95.8837 535.714 91.3126 533.579C86.2699 531.225 82.402 528.155 77.9144 524.964C75.6022 523.32 73.1976 521.827 70.8487 520.237C68.784 518.837 67.3258 516.795 65.2355 515.483C60.8424 512.724 56.3358 509.685 52.1676 506.535C47.8859 503.3 43.1529 500.726 39.0221 497.288C34.7872 493.762 30.047 491.427 25.6254 488.217C16.2547 481.416 8.00328 473.767 2.71739 463.376Z" fill="black"/>
<path fill-rule="evenodd" clip-rule="evenodd" d="M255.536 102.244C255.42 102.87 255.304 103.497 255.187 104.123C255.258 104.139 260.866 93.2972 261.794 91.988C264.945 87.5492 269.045 83.856 272.998 80.1488C281.371 72.2961 291.171 65.9579 299.376 57.9652C302.076 55.3356 306.913 51.3513 305.845 46.9052C304.784 42.4862 295.825 43.3843 292.757 44.6627C287.947 46.6677 284.04 50.8609 280.456 54.5146C276.546 58.5003 272.605 62.4413 269.291 66.9519C265.719 71.8159 262.327 77.0838 260.138 82.7285C257.685 89.052 256.727 95.5962 255.536 102.244ZM257.378 121.645C253.573 122.819 258.343 123.612 256.853 125.647C255.218 127.879 252.47 121.003 252.059 119.705C249.637 112.035 250.72 102.717 252.043 94.9291C252.711 91.0005 253.142 87.0074 254.043 83.1214C254.922 79.3321 256.836 75.7313 258.604 72.2843C262.144 65.3876 266.831 58.9621 272.151 53.3387C277.486 47.697 283.434 42.0523 290.474 38.5789C296.292 35.7104 305.513 37.7007 308.236 43.9663C311.019 50.369 307.256 57.3435 302.806 61.8453C297 67.7165 290.675 73.5482 284.154 78.6108C280.804 81.2132 277.995 84.3603 274.739 87.0756C271.274 89.9661 268.276 92.8735 265.714 96.6115C263.233 100.234 260.679 103.853 259.066 107.965C257.3 112.467 257.378 116.881 257.378 121.645Z" fill="black"/>
<path fill-rule="evenodd" clip-rule="evenodd" d="M105.183 397.753C96.4397 392.118 87.6667 387.17 80.0525 379.984C72.5349 372.889 65.9666 364.887 57.5994 358.731C53.4246 355.659 49.1157 352.776 45.0149 349.604C41.1228 346.593 36.6492 344.014 33.1314 340.58C28.4424 336.002 19.6636 327.494 25.6541 320.668C33.0896 329.519 43.2915 336.496 52.5925 343.215C62.3997 350.3 71.4011 358.566 80.7036 366.285C89.6648 373.721 98.5959 381.225 107.34 388.858C109.636 390.863 111.851 392.969 114.175 394.942C114.459 395.183 116.867 396.71 116.867 397.116C116.867 398.091 115.001 398.699 114.336 398.971C113.286 399.399 110.447 400.463 109.257 400.103C108.633 399.914 108.622 399.405 108.172 399.103C107.914 398.615 107.612 398.155 107.269 397.723C106.573 397.734 105.878 397.744 105.183 397.753Z" fill="black"/>
<path fill-rule="evenodd" clip-rule="evenodd" d="M619.916 299.501C613.684 299.34 604.196 299.322 604.545 307.841C604.718 312.059 607.003 315.157 608.88 318.765C610.851 322.557 612.312 326.474 612.891 330.724C615.231 347.927 608.953 364.734 603.274 380.637C615.47 370.785 624.277 357.077 628.902 342.051C631.144 334.764 632.016 325.398 631.292 317.811C630.929 314.014 629.53 310.611 627.846 307.228C627 305.529 626.154 303.588 624.805 302.213C623.453 300.835 621.58 300.376 619.916 299.501ZM598.174 390.49C594.147 383.862 600.487 374.104 602.56 367.641C605.038 359.914 607.325 351.87 608.384 343.811C609.493 335.369 608.061 328.806 604.152 321.35C600.656 314.684 598.581 305.807 602.467 298.754C604.032 295.915 606.343 295.566 609.091 294.434C612.463 293.045 613.391 290.694 617.53 291.067C624.913 291.73 628.329 298.739 631.076 304.711C637.48 318.632 635.739 336.597 630.277 350.576C627.134 358.62 623.549 366.972 618.211 373.821C615.594 377.179 612.518 380.09 609.326 382.892C605.873 385.922 602.779 389.574 598.174 390.49Z" fill="black"/>
<path fill-rule="evenodd" clip-rule="evenodd" d="M176.536 148.795C166.802 150.753 157.919 155.144 156.36 166.093C154.943 176.044 161.715 185.25 170.031 189.908C179.025 194.947 190.295 195.784 199.257 190.2C208.691 184.32 210.831 172.538 205.089 163.295C198.682 152.98 187.948 149.935 176.536 148.795ZM182.792 144.021C194.383 145.721 205.143 153.978 209.048 165.098C213.073 176.561 209.374 189.164 198.718 195.445C177.181 208.14 148.396 186.984 153.594 162.668C154.914 156.494 158.661 151.712 163.753 148.098C169.374 144.106 176.172 143.998 182.792 144.021Z" fill="black"/>
<path fill-rule="evenodd" clip-rule="evenodd" d="M594.912 27.6113C580.946 21.2907 566.978 14.9702 553.012 8.64957C552.439 14.9863 551.866 21.3223 551.293 27.659C551.137 29.3736 550.503 31.7063 550.773 33.3982C551.063 35.2038 550.445 35.011 552.797 34.7544C555.804 34.4253 558.822 33.6819 561.799 33.1505C567.15 32.1945 572.841 31.9218 578.078 30.5158C580.751 29.7981 583.311 29.7079 586.023 29.2739C589.003 28.7974 591.903 27.9148 594.912 27.6113ZM547.667 39.861C547.667 32.7231 548.459 25.6811 549.112 18.5762C549.699 12.1837 549.925 6.0904 552.01 0C553.957 3.54003 559.35 4.95486 562.687 6.77656C567.285 9.28661 572.182 11.1347 576.889 13.4212C581.512 15.6666 585.965 18.2448 590.593 20.4851C592.94 21.6214 595.322 22.6814 597.665 23.8265C599.131 24.5434 602.608 25.6973 603.52 27.0285C606.29 31.0692 596.811 31.46 594.982 31.8163C589.495 32.8873 583.945 33.4906 578.469 34.5917C573.363 35.6195 568.248 36.5732 563.124 37.5049C558.052 38.4271 552.827 39.861 547.667 39.861Z" fill="black"/>
<path fill-rule="evenodd" clip-rule="evenodd" d="M117.016 216.569C122.515 215.996 127.991 215.172 133.484 214.628C138.686 214.113 143.287 213.564 148.039 211.179C141.549 209.22 135.044 207.366 128.5 205.596C125.253 204.718 122.014 203.79 118.753 202.97C116.231 202.335 114.032 201.97 113.062 199.214C111.934 196.006 115.072 196.493 117.028 197.308C119.727 198.432 122.666 199.13 125.462 200.065C131.704 202.15 137.984 204.069 144.284 205.965C146.242 206.555 157.591 208.735 153.502 212.524C151.752 214.146 147.847 215.037 145.708 216.202C142.963 217.696 139.976 218.291 136.923 218.886C130.561 220.125 123.958 220.6 117.517 221.675C114.228 222.224 110.939 222.773 107.65 223.322C105.723 223.643 104.981 223.612 104.478 221.461C104.112 219.898 104.59 218.335 104.941 216.821C105.833 212.974 106.826 209.148 107.808 205.324C108.181 203.865 108.843 197.452 110.143 196.751C113.092 195.159 110.817 204.037 110.598 205.124C109.77 209.225 108.787 213.298 108.345 217.459C111.242 217.197 114.13 216.925 117.016 216.569Z" fill="black"/>
<path fill-rule="evenodd" clip-rule="evenodd" d="M194.988 249.217C196.079 251.959 194.267 252.573 192.069 253.523C189.217 254.755 186.411 256.056 183.507 257.166C177.398 259.499 171.245 261.666 165.282 264.366C153.908 269.514 142.38 274.458 131.183 279.971C128.401 281.341 125.616 282.706 122.809 284.026C119.905 285.391 116.576 287.687 113.469 288.467C110.76 289.148 110.478 287.217 112.083 285.438C114.153 283.145 117.353 281.432 119.952 279.838C130.65 273.274 142.325 267.932 154.01 263.417C167.515 258.197 181.057 253.19 194.988 249.217Z" fill="black"/>
<path fill-rule="evenodd" clip-rule="evenodd" d="M224.684 93.638C224.293 85.3 225.407 76.9392 224.743 68.6232C213.32 78.7587 218.948 94.4224 225.519 105.42L224.684 93.638ZM229.629 93.1615C229.701 97.2345 229.932 101.305 229.536 105.358C229.121 109.612 231.115 111.803 233.713 114.936C231.507 117.178 226.443 111.951 225.044 110.41C222.165 107.237 220.023 103.022 218.116 99.2123C214.056 91.0964 211.26 82.4072 214.509 73.4967C215.714 70.1942 217.188 65.7041 220.377 63.7812C223.88 61.67 226.559 64.6477 228.012 67.7105C231.56 75.1835 228.855 85.1402 229.629 93.1615Z" fill="black"/>
<path fill-rule="evenodd" clip-rule="evenodd" d="M350.64 507.628C355.907 508.046 361.095 508.457 366.363 508.791C365.454 501.565 364.544 494.337 363.635 487.11C360.588 487.817 357.54 488.522 354.493 489.228C353.052 489.561 350.842 489.649 349.567 490.369C349.09 490.479 348.613 490.59 348.137 490.7C348.123 491.638 348.113 492.576 348.104 493.515C348.068 496.29 347.989 499.063 347.874 501.836C347.825 502.998 347.42 504.699 347.698 505.85C347.205 507.014 347.518 507.509 348.641 507.335C349.308 507.432 349.973 507.53 350.64 507.628ZM347.014 512.853C342.885 510.795 344.014 504.508 344.02 500.506C344.025 497.96 344.205 495.431 344.272 492.889C344.318 491.141 343.919 488.978 344.519 487.29C345.588 484.287 350.816 484.368 353.505 484.579C355.499 484.734 357.167 484.633 359.211 484.502C360.218 484.438 361.341 484.63 362.331 484.332C362.545 484.268 364.558 482.862 364.469 482.859C368.08 482.997 368.129 491.664 368.363 493.864C368.942 499.285 369.467 504.715 369.939 510.147C370.064 511.585 370.598 513.21 369.233 514.031C368.003 514.771 364.741 514.039 363.38 513.998C357.895 513.832 352.44 512.976 347.014 512.853Z" fill="black"/>
<path fill-rule="evenodd" clip-rule="evenodd" d="M604.741 190.801C607.128 192.951 605.981 195.169 605.199 197.855C604.729 199.467 602.146 204.76 602.859 206.268C603.683 208.011 607.552 208.44 609.206 208.99C612.088 209.949 614.982 210.913 617.709 212.264C618.919 212.865 623.283 214.244 624.101 215.365C624.57 216.007 624.741 216.51 624.389 217.337C623.77 218.79 622.887 218.021 621.379 217.71C614.488 216.285 607.655 214.462 601.264 211.457C599.482 215.596 597.973 219.824 596.466 224.071C596.024 225.316 595.602 228.144 593.924 228.346C591.878 228.591 591.85 225.848 591.986 224.367C592.184 222.206 593.303 219.902 593.978 217.856C594.536 216.167 596.491 212.651 596.25 210.91C596.085 209.713 595.355 209.796 594.055 209.325C592.827 208.881 591.598 208.439 590.371 207.99C588.403 207.269 586.443 206.546 584.527 205.692C583.476 205.222 581.277 204.674 580.516 203.701C580.074 203.136 579.582 201.102 580.139 200.539C581.442 199.22 590.108 202.77 591.89 203.254C593.072 203.576 594.26 203.822 595.407 204.243C595.842 204.404 596.356 205.055 596.825 205.079C598.819 205.18 598.977 203.646 599.595 202C601.032 198.175 602.591 194.274 604.741 190.801Z" fill="black"/>
<path fill-rule="evenodd" clip-rule="evenodd" d="M107.88 266.891C106.817 264.283 118.097 261.133 120.191 260.255C125.302 258.114 130.777 256.818 136.069 255.183C141.273 253.574 146.454 251.843 151.572 249.981C153.155 249.405 164.553 243.851 165.149 244.663C167.124 247.35 143.206 255.793 140.876 256.633C130.054 260.533 118.879 263.527 107.88 266.891Z" fill="black"/>
<path fill-rule="evenodd" clip-rule="evenodd" d="M593.034 62.9737C590.11 63.003 585.893 63.8328 583.21 62.6453C586.485 62.7545 589.759 62.8645 593.034 62.9737Z" fill="black"/>
<path fill-rule="evenodd" clip-rule="evenodd" d="M182.792 144.021L176.29 143.998C178.459 143.494 180.627 143.19 182.792 144.021Z" fill="black"/>
<path fill-rule="evenodd" clip-rule="evenodd" d="M521.371 142.283C522.904 142.275 524.438 142.267 525.96 142.258C524.424 142.267 522.897 142.275 521.371 142.283Z" fill="black"/>
<path fill-rule="evenodd" clip-rule="evenodd" d="M655.41 182.03C655.399 183.671 655.388 185.313 655.375 186.947C655.385 185.304 655.397 183.667 655.41 182.03Z" fill="black"/>
<path fill-rule="evenodd" clip-rule="evenodd" d="M353.505 484.578C351.877 484.696 350.249 484.814 348.622 484.931C350.251 484.814 351.878 484.695 353.505 484.578Z" fill="black"/>
<path fill-rule="evenodd" clip-rule="evenodd" d="M362.68 171.752C361.027 171.886 359.373 172.021 357.721 172.155C359.374 172.02 361.027 171.886 362.68 171.752Z" fill="black"/>
<path fill-rule="evenodd" clip-rule="evenodd" d="M533.793 141.743C534.964 141.74 536.134 141.738 537.294 141.736C536.121 141.739 534.957 141.741 533.793 141.743Z" fill="black"/>
<path fill-rule="evenodd" clip-rule="evenodd" d="M298.35 174.955C296.896 175.086 295.44 175.217 293.987 175.348C295.441 175.217 296.896 175.086 298.35 174.955Z" fill="black"/>
<path fill-rule="evenodd" clip-rule="evenodd" d="M362.58 71.0601C361.125 71.0689 359.671 71.0777 358.217 71.0865C359.667 70.3168 361.122 70.5154 362.58 71.0601Z" fill="black"/>
<path fill-rule="evenodd" clip-rule="evenodd" d="M97.0991 322.835C95.8892 322.77 94.9033 323.358 94.2207 322.203C95.3376 321.331 95.9822 322.335 97.0991 322.835Z" fill="black"/>
<path fill-rule="evenodd" clip-rule="evenodd" d="M321.502 225.618L317.726 225.193L321.502 225.618Z" fill="black"/>
<path fill-rule="evenodd" clip-rule="evenodd" d="M347.014 512.853C347.848 512.872 348.681 512.89 349.506 512.909C348.669 512.889 347.841 512.871 347.014 512.853Z" fill="black"/>
<path fill-rule="evenodd" clip-rule="evenodd" d="M540.796 65.3501C539.497 65.4667 538.196 65.5832 536.897 65.6998C538.197 65.5825 539.497 65.4667 540.796 65.3501Z" fill="black"/>
<path fill-rule="evenodd" clip-rule="evenodd" d="M128.811 460.068C127.562 460.074 126.314 460.079 125.066 460.084C126.315 460.079 127.563 460.074 128.811 460.068Z" fill="black"/>
<path fill-rule="evenodd" clip-rule="evenodd" d="M28.4397 437.914C27.1792 437.917 25.9194 437.919 24.6597 437.921C25.9202 437.919 27.1792 437.917 28.4397 437.914Z" fill="black"/>
<path fill-rule="evenodd" clip-rule="evenodd" d="M346.916 172.793C345.636 172.919 344.357 173.045 343.077 173.171C344.357 173.045 345.636 172.919 346.916 172.793Z" fill="black"/>
<path fill-rule="evenodd" clip-rule="evenodd" d="M311.214 174.871C309.955 174.726 308.697 174.581 307.438 174.435C308.686 174.68 310.072 173.716 311.214 174.871Z" fill="black"/>
<path fill-rule="evenodd" clip-rule="evenodd" d="M425.232 225.451C426.016 225.362 427.116 225.087 427.924 225.216C427.819 225.678 425.533 225.45 425.232 225.451Z" fill="black"/>
<path fill-rule="evenodd" clip-rule="evenodd" d="M345.374 324.297C346.218 324.313 347.063 324.329 347.899 324.343C347.052 324.328 346.213 324.313 345.374 324.297Z" fill="black"/>
<path fill-rule="evenodd" clip-rule="evenodd" d="M269.095 223.631C267.862 223.75 266.629 223.87 265.396 223.988C266.63 223.869 267.862 223.75 269.095 223.631Z" fill="black"/>
<path fill-rule="evenodd" clip-rule="evenodd" d="M131.008 219.423C131.68 219.442 132.353 219.46 133.016 219.478C132.341 219.46 131.674 219.442 131.008 219.423Z" fill="black"/>
<path fill-rule="evenodd" clip-rule="evenodd" d="M312.773 224.56C311.719 224.538 310.663 224.517 309.609 224.497C310.664 224.517 311.719 224.538 312.773 224.56Z" fill="black"/>
<path fill-rule="evenodd" clip-rule="evenodd" d="M117.016 216.569C115.95 216.7 114.883 216.832 113.818 216.963C114.885 216.831 115.95 216.7 117.016 216.569Z" fill="black"/>
<path fill-rule="evenodd" clip-rule="evenodd" d="M263.299 207.501C263.958 207.527 264.616 207.554 265.267 207.582C264.604 207.558 263.952 207.53 263.299 207.501Z" fill="black"/>
<path fill-rule="evenodd" clip-rule="evenodd" d="M313.542 318.364C314.211 318.321 314.879 318.277 315.539 318.233C314.868 318.276 314.205 318.321 313.542 318.364Z" fill="black"/>
<path fill-rule="evenodd" clip-rule="evenodd" d="M364.696 231.552C363.62 231.418 362.544 231.284 361.471 231.15C362.545 231.284 363.62 231.418 364.696 231.552Z" fill="black"/>
<path fill-rule="evenodd" clip-rule="evenodd" d="M105.184 397.753C105.882 397.743 106.58 397.735 107.27 397.723C106.569 397.732 105.876 397.743 105.184 397.753Z" fill="black"/>
<path fill-rule="evenodd" clip-rule="evenodd" d="M47.8743 310.943C46.7624 310.831 45.6506 310.718 44.5381 310.606C45.6499 310.718 46.7617 310.831 47.8743 310.943Z" fill="black"/>
<path fill-rule="evenodd" clip-rule="evenodd" d="M24.1506 438.066C23.0579 438.193 21.9651 438.319 20.8716 438.445C21.9658 438.319 23.0579 438.193 24.1506 438.066Z" fill="black"/>
<path fill-rule="evenodd" clip-rule="evenodd" d="M619.861 142.105C619.775 143.051 619.689 143.996 619.602 144.938C619.687 143.991 619.774 143.049 619.861 142.105Z" fill="black"/>
<path fill-rule="evenodd" clip-rule="evenodd" d="M135.342 459.124C134.242 459.25 133.143 459.376 132.044 459.503C133.144 459.376 134.243 459.25 135.342 459.124Z" fill="black"/>
<path fill-rule="evenodd" clip-rule="evenodd" d="M124.555 460.214C123.443 460.992 122.331 461.036 121.218 460.217C122.33 460.216 123.443 460.215 124.555 460.214Z" fill="black"/>
<path fill-rule="evenodd" clip-rule="evenodd" d="M103.462 461.145C102.383 461.146 101.305 461.146 100.227 461.147C101.305 461.146 102.384 461.146 103.462 461.145Z" fill="black"/>
<path fill-rule="evenodd" clip-rule="evenodd" d="M229.629 93.1615C229.537 92.2034 229.444 91.246 229.352 90.2915C229.444 91.2511 229.537 92.2063 229.629 93.1615Z" fill="black"/>
<path fill-rule="evenodd" clip-rule="evenodd" d="M347.444 71.767C346.36 71.9012 345.276 72.0346 344.193 72.168C345.277 72.0346 346.361 71.9012 347.444 71.767Z" fill="black"/>
<path fill-rule="evenodd" clip-rule="evenodd" d="M351.286 71.2595C350.184 71.3826 349.082 71.5065 347.981 71.6304C349.083 71.5065 350.184 71.3826 351.286 71.2595Z" fill="black"/>
<path fill-rule="evenodd" clip-rule="evenodd" d="M180.192 198.928C180.871 198.918 181.549 198.908 182.218 198.897C181.536 198.908 180.865 198.918 180.192 198.928Z" fill="black"/>
<path fill-rule="evenodd" clip-rule="evenodd" d="M278.335 188.318C281.933 187.724 285.53 187.526 289.126 188.315L278.335 188.318Z" fill="black"/>
<path fill-rule="evenodd" clip-rule="evenodd" d="M374.273 147.817C375.021 145.86 375.208 145.125 377.036 144.112C376.275 146.015 376.155 147.032 374.273 147.817Z" fill="black"/>
<path fill-rule="evenodd" clip-rule="evenodd" d="M461.992 341.525C462.065 343.56 462.137 345.595 462.208 347.628C462.136 345.592 462.064 343.558 461.992 341.525Z" fill="black"/>
<path fill-rule="evenodd" clip-rule="evenodd" d="M592.445 67.6739C590.818 67.7105 589.191 67.7479 587.571 67.7846C589.2 67.7479 590.823 67.7105 592.445 67.6739Z" fill="black"/>
<path fill-rule="evenodd" clip-rule="evenodd" d="M375.666 377.694C375.723 379.39 375.779 381.087 375.835 382.782C375.778 381.085 375.722 379.39 375.666 377.694Z" fill="black"/>
<path fill-rule="evenodd" clip-rule="evenodd" d="M176.255 323.341C177.899 323.353 179.543 323.365 181.187 323.376C179.542 323.365 177.899 323.353 176.255 323.341Z" fill="black"/>
<path fill-rule="evenodd" clip-rule="evenodd" d="M315.979 236.198C314.988 236.208 313.998 236.216 313.018 236.229C314.011 236.22 314.994 236.209 315.979 236.198Z" fill="black"/>
<path fill-rule="evenodd" clip-rule="evenodd" d="M312.752 182.271C311.938 182.243 311.123 182.215 310.317 182.191C311.135 182.219 311.944 182.245 312.752 182.271Z" fill="black"/>
<path fill-rule="evenodd" clip-rule="evenodd" d="M196.272 322.828C197.557 322.702 198.842 322.576 200.127 322.45C198.842 322.576 197.557 322.702 196.272 322.828Z" fill="black"/>
<path fill-rule="evenodd" clip-rule="evenodd" d="M168.269 323.406C169.528 323.387 170.787 323.367 172.045 323.347C170.787 323.367 169.528 323.387 168.269 323.406Z" fill="black"/>
<path fill-rule="evenodd" clip-rule="evenodd" d="M181.709 323.373C183.013 323.26 184.317 323.146 185.621 323.032C184.318 323.145 183.013 323.26 181.709 323.373Z" fill="black"/>
<path fill-rule="evenodd" clip-rule="evenodd" d="M186.464 325.442C185.815 325.439 185.167 325.434 184.528 325.431C185.179 325.435 185.821 325.439 186.464 325.442Z" fill="black"/>
<path fill-rule="evenodd" clip-rule="evenodd" d="M461.424 296.286C461.521 295.329 461.618 294.373 461.714 293.42C461.618 294.378 461.521 295.332 461.424 296.286Z" fill="black"/>
<path fill-rule="evenodd" clip-rule="evenodd" d="M266.767 199.615C267.584 199.685 268.403 199.754 269.221 199.825C268.308 199.872 267.394 199.918 266.481 199.965C266.487 199.777 266.582 199.661 266.767 199.615Z" fill="black"/>
<path fill-rule="evenodd" clip-rule="evenodd" d="M476.843 360.465C476.791 359.594 476.739 358.722 476.688 357.857C476.74 358.73 476.792 359.598 476.843 360.465Z" fill="black"/>
<path fill-rule="evenodd" clip-rule="evenodd" d="M281.444 196.292C280.788 196.305 280.131 196.318 279.482 196.33C280.142 196.317 280.793 196.305 281.444 196.292Z" fill="black"/>
<path fill-rule="evenodd" clip-rule="evenodd" d="M521.744 306.229C522.838 306.358 523.932 306.486 525.026 306.614C523.931 306.486 522.838 306.358 521.744 306.229Z" fill="black"/>
<path fill-rule="evenodd" clip-rule="evenodd" d="M294.48 234.068C293.806 234.079 293.133 234.088 292.468 234.1C293.144 234.09 293.812 234.079 294.48 234.068Z" fill="black"/>
<path fill-rule="evenodd" clip-rule="evenodd" d="M255.537 102.244C256.244 102.622 255.877 104.282 255.188 104.123C255.304 103.497 255.42 102.87 255.537 102.244Z" fill="black"/>
<path fill-rule="evenodd" clip-rule="evenodd" d="M619.917 299.501C619.267 299.484 618.618 299.467 617.978 299.45C618.629 299.468 619.273 299.485 619.917 299.501Z" fill="black"/>
<path fill-rule="evenodd" clip-rule="evenodd" d="M224.684 93.638C224.615 92.1755 224.547 90.7137 224.479 89.2556C224.547 90.7196 224.616 92.1784 224.684 93.638Z" fill="black"/>
<path fill-rule="evenodd" clip-rule="evenodd" d="M347.641 507.188C348.642 507.335 349.641 507.481 350.641 507.628C349.64 507.481 348.641 507.335 347.641 507.188Z" fill="black"/>
<path fill-rule="evenodd" clip-rule="evenodd" d="M341.03 130.691C337.503 131.418 333.881 131.797 330.438 132.867C329.578 133.134 326.759 134.773 325.73 134.341C324.166 133.684 324.957 131.997 325.615 131.097C327.378 128.689 330.53 127.34 333.421 127.37C336.306 127.401 340.267 127.296 341.03 130.691Z" fill="black"/>
<path fill-rule="evenodd" clip-rule="evenodd" d="M331.231 137.15C335.115 139.87 338.081 141.21 338.41 135.096C342.618 135.67 340.732 142.454 337.548 142.965C334.082 143.522 331.77 140.056 331.231 137.15Z" fill="black"/>
</svg>
