<svg width="424" height="318" viewBox="0 0 424 318" fill="none" xmlns="http://www.w3.org/2000/svg">
<path fill-rule="evenodd" clip-rule="evenodd" d="M125.565 174.351C127.531 189.088 129.495 203.825 131.46 218.563L133.047 230.464C133.248 231.966 133.058 234.928 133.821 236.272C134.091 236.746 134.799 236.972 135.32 237.251C137.113 238.214 138.907 239.176 140.699 240.139C155.867 248.282 171.034 256.425 186.2 264.568C200.756 272.383 215.312 280.198 229.867 288.012C231.374 288.821 233.81 290.931 235.436 290.375C236.982 289.847 238.561 288.543 239.965 287.722C242.659 286.143 245.352 284.564 248.046 282.986C264.346 273.433 280.645 263.88 296.945 254.328C303.671 250.387 310.395 246.446 317.121 242.504C318.96 241.426 320.801 240.348 322.641 239.269C323.603 238.705 323.728 238.725 324.107 237.768C325.523 234.189 326.179 230.089 327.181 226.376C328.285 222.284 329.39 218.192 330.494 214.1C330.986 212.274 330.755 212.038 329.952 210.275C328.363 206.786 326.774 203.298 325.185 199.809C321.657 192.066 318.13 184.324 314.602 176.581C313.176 173.449 309.74 171.246 307.266 168.943L268.859 133.185C267.884 132.277 266.908 131.369 265.933 130.46C265.772 135.919 264.693 141.788 266.275 147.061C268.872 155.716 271.468 164.37 274.064 173.024C275.319 177.207 276.574 181.39 277.829 185.573C278.062 186.35 279.482 189.432 279.102 190.116C278.892 190.495 277.099 190.878 276.711 191.026C275.042 191.66 273.374 192.295 271.705 192.93C267.057 194.698 262.409 196.467 257.761 198.235C253.58 199.826 249.399 201.416 245.218 203.006C243.801 203.546 242.136 204.545 240.638 204.461C239.299 204.387 237.776 203.724 236.48 203.39C234.201 202.804 231.922 202.216 229.644 201.629C225.168 200.477 220.691 199.324 216.215 198.171C211.179 196.873 206.927 193.064 202.62 190.244C195.217 185.397 187.815 180.55 180.413 175.703C178.718 174.593 178.712 173.96 178.036 171.934C176.519 167.381 175.001 162.828 173.483 158.275C172.673 155.844 171.676 153.403 171.064 150.914C170.055 146.807 169.456 142.555 168.657 138.402C168.416 137.149 168.174 135.895 167.933 134.642C164.833 135.9 161.733 137.158 158.632 138.417C158.183 138.599 155.994 139.143 155.799 139.589C155.676 139.872 156.327 141.153 156.42 141.429C158.991 149.042 161.561 156.655 164.132 164.268C164.941 166.663 165.749 169.057 166.558 171.452C164.626 168.416 162.693 165.379 160.761 162.343C159.243 167.45 157.724 172.557 156.206 177.663C152.618 173.523 149.029 169.382 145.44 165.241C144.198 169.382 142.956 173.523 141.714 177.663C137.849 172.557 133.985 167.45 130.12 162.343C129.661 165.008 129.201 167.673 128.742 170.338C128.603 171.142 128.631 173.45 128.095 174.087C127.654 174.611 126.385 174.351 125.565 174.351Z" fill="#597EFF"/>
<path fill-rule="evenodd" clip-rule="evenodd" d="M370.25 206.207C370.032 213.144 370.183 222.15 366.386 228.249C365.773 229.233 363.698 232.3 363.466 229.602C363.239 226.954 363.89 224.331 363.245 221.652C362.899 220.219 361.738 217.088 359.753 218.383C358.741 219.043 358.474 220.672 358.079 221.7C357.493 223.222 356.837 224.72 356.221 226.23C354.068 231.501 351.837 237.792 347.05 241.281C347.677 236.735 349.384 231.881 348.236 227.287C347.845 225.721 346.66 222.861 344.62 223.779C342.632 224.673 341.343 228.662 340.405 230.438C337.56 235.824 334.65 241.108 331.448 246.292C329.837 248.9 328.097 251.284 325.989 253.514C324.671 254.91 323.027 257.268 320.95 257.475C320.95 253.499 322.258 249.658 323.453 245.913C324.738 241.887 325.909 237.826 327.17 233.792C328.264 230.293 329.162 226.821 329.891 223.232C330.193 221.748 330.431 220.212 331.696 219.253C332.833 218.392 334.629 217.982 335.897 217.349C339.226 215.686 342.65 213.891 345.743 211.824C347.013 210.975 348.106 209.879 349.435 209.117C350.95 208.25 352.365 207.52 353.766 206.463C359.814 201.901 365.266 196.289 368.94 189.61C369.536 192.293 370.326 194.916 370.413 197.682C370.503 200.518 370.339 203.372 370.25 206.207ZM320.475 238.094C319.508 236.46 318.035 237.129 316.736 237.917C314.721 239.139 312.701 240.352 310.676 241.558C306.555 244.014 302.51 246.598 298.483 249.205C290.287 254.51 281.805 258.852 273.164 263.343C264.812 267.683 256.791 272.848 248.966 278.068C247.085 279.323 245.218 280.607 243.412 281.967C241.809 283.175 240.527 284.871 238.84 285.946C237.082 287.066 235.875 286.158 234.194 285.332C232.092 284.299 229.902 283.434 227.753 282.503C219.083 278.744 210.388 274.842 201.954 270.576C193.571 266.336 185.628 261.45 177.596 256.597C173.77 254.286 170.01 251.829 166.237 249.433C162.221 246.884 158.064 244.974 153.851 242.806C151.988 241.847 150.337 240.545 148.423 239.673C146.41 238.757 144.284 238.099 142.482 236.777C141.675 236.184 140.993 235.475 140.07 235.056C139.312 234.712 138.451 234.654 137.702 234.288C136.18 233.545 135.744 232.035 135.449 230.466C133.552 220.389 132.544 210.033 131.444 199.843C130.827 194.114 130.137 188.406 129.283 182.707C128.898 180.137 129.673 178.146 130.079 175.646C130.554 172.727 130.741 169.746 131.059 166.807C132.56 169.587 133.857 172.504 135.767 175.041C137.174 176.91 139.578 179.562 142.17 179.499C146.198 179.402 146.014 172.493 146.176 169.751C148.011 171.389 148.567 174.056 150.09 175.959C151.48 177.695 153.373 179.85 155.508 180.628C160.004 182.265 159.571 173.92 159.324 171.553C159.2 170.366 158.529 168.488 160.12 169.029C161.584 169.527 163.01 171.594 164.241 172.542C166.368 174.181 168.702 175.542 170.885 177.107C173.594 179.048 176.516 180.451 179.278 182.259C181.005 183.389 182.889 183.643 184.771 184.475C187.53 185.693 189.967 187.509 192.592 188.97C197.792 191.861 203.56 194.454 209.247 196.198C211.087 196.761 213.539 198.351 214.935 196.718C215.794 195.712 216.359 194.176 217.089 193.049C218.012 191.623 218.992 190.233 220.009 188.872C223.627 184.036 227.643 179.469 232.102 175.389C237.289 170.644 242.962 166.373 249.03 162.816C251.637 161.288 262.522 154.438 264.915 159.259C262.949 159.136 261.245 159.856 259.563 160.756C259.153 160.976 257.037 162.487 257.532 161.155C256.917 161.271 256.378 162.072 255.912 162.429C255.108 163.045 253.888 163.756 252.956 164.266C252.035 164.77 250.897 164.894 250.058 165.505C249.752 165.728 249.566 166.09 249.273 166.331L248.435 166.338C248.31 166.802 248.184 167.266 248.059 167.73C247.585 166.212 246.909 168.186 246.118 168.828C245.642 169.213 244.889 169.61 244.329 169.859C243.91 170.045 243.846 169.613 243.439 169.941C243.078 170.233 242.848 170.876 242.459 171.242C241.983 171.69 241.373 172.039 240.842 172.421C239.824 173.154 238.747 173.73 237.716 174.424C236.329 175.359 235.602 176.967 234.255 177.945C233.617 178.408 232.626 178.462 232.281 178.758C231.415 179.503 231.7 180.631 230.086 180.681C230.233 180.916 230.321 181.171 230.351 181.446C229.966 181.38 229.624 181.22 229.325 180.967C229.392 182.578 227.808 183.153 226.859 184.145C226.311 184.716 225.629 185.52 225.244 186.208C225.179 186.323 225.057 187.241 225.03 187.253C224.884 187.324 223.991 186.54 224.076 186.605C223.827 188.093 222.387 189.5 221.756 190.878C221.424 191.604 221.087 192.771 220.432 193.281C220.254 193.42 219.706 193.275 219.254 193.757C218.922 194.111 218.539 194.765 218.404 195.234C218.314 195.547 218.422 196.358 218.293 196.546C218.056 196.89 217.687 196.544 217.316 196.799C216.631 197.268 216.613 198.002 215.61 198.098C216.301 199.779 220.477 200.297 221.994 200.775C226.286 202.125 230.789 203.474 234.801 205.543C235.838 206.078 236.82 206.519 237.004 207.752C237.26 209.467 236.386 211.747 236.219 213.48C235.767 218.158 235.675 222.975 235.769 227.673C235.859 232.123 236.003 236.615 236.21 241.06C236.403 245.182 237.234 249.221 237.682 253.313C237.805 254.437 237.723 259.501 239.654 259.246C241.267 259.034 240.248 255.574 240.218 254.582C240.151 252.387 240.613 250.147 240.593 247.932C240.584 246.868 241.05 245.95 241.094 244.932C241.139 243.925 240.638 243.13 240.788 242.086C240.932 241.085 243.892 235.326 241.05 236.001C241.216 235.178 241.362 234.348 241.582 233.536C241.886 233.81 242.131 234.129 242.315 234.493C242.568 232.724 242.484 230.959 242.641 229.189C242.711 228.387 243.036 227.509 242.925 226.701C242.946 226.366 242.904 226.037 242.798 225.715C242.623 225.53 242.406 225.432 242.149 225.423C242.014 224.98 241.979 224.859 242.219 224.424C242.322 224.13 242.527 223.946 242.833 223.873C243.416 223.804 243.483 223.469 243.033 222.868C243.267 221.682 243.298 220.934 243.128 219.75C242.986 218.756 243.51 216.831 242.976 215.946C242.353 214.911 242.043 215.915 241.927 214.48C241.902 214.177 241.882 213.544 242.004 213.242C242.138 212.912 242.54 213.047 242.592 212.93C242.941 212.133 242.964 210.563 241.729 210.7C241.777 210.13 241.826 209.561 241.874 208.992C242.766 210.019 242.454 209.149 242.96 208.578C243.642 207.809 244.308 207.677 245.283 207.372C247.879 206.562 250.381 205.344 252.918 204.355C258.291 202.261 263.764 200.392 268.979 197.917C279.949 192.712 290.701 187.063 301.738 181.995C300.95 180.532 301.44 180.461 302.016 179.087C302.785 179.621 302.624 179.248 303.171 179.216C303.121 178.757 303.264 178.619 303.598 178.801C303.865 178.882 304.137 178.911 304.417 178.887C305.1 179.004 305.659 179.38 306.28 179.523C306.483 179.674 306.707 179.786 306.952 179.862C307.171 179.812 307.358 179.703 307.513 179.536C308.519 179.722 308.857 180.48 308.902 181.576C308.909 181.767 308.325 181.962 308.492 182.219C308.784 182.667 309.57 182.56 310.02 182.617C309.921 183.082 309.823 183.547 309.725 184.012C311.698 183.102 311.183 185.952 311.781 186.888C311.948 187.149 312.32 186.941 312.513 187.243C312.765 187.638 312.689 188.198 312.904 188.591C313.39 189.481 313.876 189.373 314.36 190.392C316.889 195.712 320.254 200.669 322.682 206.104C323.838 208.69 324.881 211.321 326.088 213.885C327.199 216.245 327.833 218.251 327.042 220.828C325.206 226.805 323.242 232.892 320.836 238.666C320.716 238.475 320.596 238.284 320.475 238.094ZM192.409 282.714C192.237 283.007 192.064 283.3 191.892 283.594C191.509 281.393 192.529 282.414 192.409 282.714ZM184.311 278.593C183.759 278.428 183.997 277.526 184.015 277.141C184.364 277.576 184.706 278.02 184.997 278.497C184.768 278.529 184.539 278.561 184.311 278.593ZM162.116 270.133C162.695 269.808 163.112 269.574 163.769 269.206C163.101 270.508 163.101 270.508 162.116 270.133ZM127.198 155.464C126.312 157.638 129.013 171.06 126.499 171.498C126.138 170.32 126.093 167.076 124.6 166.689C122.748 166.208 122.931 169.548 122.678 170.58C118.875 167.935 117.186 162.826 115.37 158.777C113.055 153.617 111.233 148.249 109.493 142.872C108.005 138.275 106.775 133.597 105.271 129.007C104.327 126.124 103.309 123.234 102.674 120.263C102.536 119.617 101.993 117.981 102.454 117.367C103.125 116.475 105.538 117.497 106.315 117.731C111.36 119.249 116.593 119.902 121.776 120.784C127.534 121.764 133.279 122.776 139.073 123.535C140.52 123.725 141.969 123.905 143.418 124.079C144.358 124.193 145.78 124.079 146.673 124.501C148.48 125.353 148.865 128.616 149.536 130.309C152.04 136.624 154.987 142.74 157.623 148.998C159.998 154.636 161.798 160.633 165.212 165.766C162.666 164.638 159.44 158.67 156.594 162.11C155.371 163.589 155.68 165.537 155.778 167.308C155.919 169.866 155.963 172.444 155.963 175.007C153.179 174.284 151.309 171.124 149.847 168.885C147.85 165.827 146.593 162.945 145.709 159.44C145.326 157.922 144.31 157.884 143.408 156.976C142.829 156.392 142.537 155.605 141.706 156.455C140.661 157.522 141.356 160.478 141.536 161.738C141.965 164.737 143.371 169.353 142.004 172.171C140.16 175.974 135.218 166.405 134.639 165.023C134.345 164.319 129.087 150.827 127.198 155.464ZM123.746 90.2861C124.057 90.3337 124.368 90.3814 124.679 90.429C124.428 90.6505 123.906 91.4273 123.48 91.2219C123.568 90.9101 123.657 90.5983 123.746 90.2861ZM140.238 86.7471C140.14 86.8544 140.042 86.9612 139.945 87.0684C139.498 86.5103 139.656 85.6967 139.656 85.0511C140.246 85.4076 140.391 86.1207 140.238 86.7471ZM141.571 92.9399V94.7642C140.334 94.2284 140.31 93.9518 141.571 92.9399ZM143.072 95.2594C142.206 95.0218 142.102 94.83 142.224 93.4988C142.583 94.2446 142.819 94.736 143.072 95.2594ZM148.058 108.77C147.695 109.704 145.573 107.478 145.651 106.812C145.725 106.177 146.051 105.987 146.5 106.396C146.649 106.531 146.428 107.02 146.523 107.19C146.866 107.804 147.556 108.307 148.058 108.77ZM148.082 114.398C147.55 115.726 146.602 113.635 147.992 113.578C148.083 113.845 148.113 114.118 148.082 114.398ZM147.05 112.305C146.845 112.031 146.645 111.752 146.45 111.469C147.166 111.614 147.734 112.656 148.489 111.961C148.399 113.021 147.646 113.051 147.05 112.305ZM100.781 95.0619C99.6302 93.8061 107.133 92.9245 108.039 92.7088C114.607 91.1424 120.809 88.8758 126.951 86.0946C129.881 84.7679 132.796 83.4251 135.657 81.9544C136.893 81.3196 138.586 80.7813 139.618 79.8281C140.355 79.1478 140.325 78.6332 141.282 78.2278C142.095 77.8845 142.136 78.2087 142.508 77.5876C142.732 77.215 142.985 75.8494 142.854 75.4453C142.497 74.3426 141.97 75.2366 141.23 74.4768C140.697 73.929 140.827 72.3713 140.972 71.7262C141.161 72.0334 141.269 72.3672 141.298 72.7266C142.101 72.3307 141.777 70.9713 142.655 70.7486C143.581 70.5142 143.485 71.2351 143.727 71.9721C144.426 70.9453 143.865 70.0695 143.487 69.0667C145.411 68.7064 147.478 68.3574 149.386 68.9975C150.765 69.46 151.945 70.5975 153.402 70.8173C154.828 71.0322 155.102 70.3561 156.153 69.6699C157.006 69.113 157.739 69.7689 158.179 69.3482C157.908 70.7685 155.58 70.5743 155.866 72.3489C155.995 73.1477 156.974 73.8652 157.42 74.4867C157.979 75.2668 158.425 76.1293 158.806 77.0084C160.288 80.4277 160.921 84.3957 161.543 88.0523C163.078 97.078 163.272 106.282 164.715 115.336C165.403 119.649 166.093 123.965 166.45 128.32C166.539 129.409 167.204 131.879 166.66 132.926C166.2 133.811 165.177 133.813 164.278 134.027C162.52 134.445 160.869 135.013 159.183 135.642C157.671 136.205 157.232 136.551 156.261 135.129C155.322 133.752 154.858 132.112 154.187 130.603C153.331 128.68 152.298 126.825 151.306 124.971C153.255 124.971 154.376 123.919 154.325 121.938C154.268 119.745 152.464 119.224 151.721 117.421C150.997 118.361 150.936 118.387 150.421 117.495C149.831 116.476 149.433 114.609 149.073 113.453C149.331 113.728 149.589 114.003 149.847 114.278C150.497 113.383 149.478 111.972 149.137 111.129C148.611 109.827 148.519 108.42 148.02 107.121C147.748 106.413 147.117 105.855 146.963 105.116C146.86 104.621 147.273 104.151 147.175 103.648C147.004 102.774 146.015 101.836 145.708 100.946C145.234 99.5781 144.72 98.3736 144.133 97.0407C143.339 95.2367 143.523 93.3436 143.378 91.4236C143.227 89.4327 142.59 87.528 142.364 85.5459C142.209 84.1766 142.696 82.4525 141.66 81.3556C141.539 83.1787 142.061 83.1506 140.348 83.4785C138.398 83.8516 136.984 85.3045 135.14 85.7381C134.76 85.8275 134.483 84.1671 134.631 86.432C133.747 85.779 131.859 86.5898 132.563 86.9773C132.029 87.5483 130.978 87.1533 130.803 88.0088C128.989 86.2453 126.08 92.248 123.92 89.1168C123.563 91.2389 122.026 92.4935 119.964 92.7742C118.926 92.915 118.287 93.2607 117.367 93.5717C117.18 93.6342 117.111 93.903 116.89 93.9754C116.552 94.0856 116.056 93.7531 115.813 93.8177C115.317 93.9493 114.766 94.6015 114.074 94.7311C113.281 94.8797 112.415 94.8114 111.621 94.7195C110.628 94.6044 110.191 94.4868 109.219 94.8139C108.345 95.1083 107.408 95.9327 106.596 95.035C105.322 97.2407 102.282 96.7016 100.781 95.0619ZM159.72 68.4447C158.755 68.3292 159.425 67.4994 159.872 67.2502C161.086 66.5736 160.762 68.5698 159.72 68.4447ZM106.298 76.36C111.961 68.1905 121.646 62.5775 130.169 57.8547C134.823 55.2751 139.575 52.7745 144.462 50.6632C146.893 49.614 149.351 48.6053 151.832 47.6836C153.157 47.1913 154.498 46.7437 155.84 46.2982C156.211 46.1752 156.886 45.7976 157.275 45.8344C157.208 45.8278 158.24 46.1085 158.037 46.1967C158.702 45.9073 159.018 45.1525 159.8 44.8506C160.679 44.5111 161.798 44.3707 162.739 44.3401C163.572 44.3128 164.293 44.6568 165.086 44.6838C165.607 44.7011 166.05 44.4535 166.561 44.4171C166.822 44.3989 166.799 44.7898 166.956 44.8125C167.025 44.8225 167.72 44.5612 167.727 44.5658C167.98 44.7285 168.205 45.3636 168.434 45.6117C169.09 46.323 170.054 46.8187 170.93 47.193C171.996 47.6484 174.596 48.1064 173.391 49.7916C174.247 49.6687 174.645 50.4421 173.574 50.638C172.993 50.7444 172.745 50.2127 172.314 49.85C171.318 49.0136 168.901 47.8228 167.467 47.8766C166.66 47.9068 166.036 48.5192 165.292 48.7416C164.559 48.9602 164.197 48.6211 163.554 48.6749C162.803 48.7374 162.319 49.373 161.603 49.4861C160.933 49.5921 160.56 49.1349 159.96 49.1668C159.248 49.2045 158.558 49.8231 157.878 50.031C156.797 50.3614 156.003 50.5866 154.947 51.1344C152.901 52.1965 150.615 52.5998 148.507 53.5141C146.821 54.2449 144.909 54.6295 143.349 55.4378C141.614 56.3359 139.871 57.2307 138.172 58.2066C136.945 58.9118 134.45 59.1544 133.096 58.9751C133.077 61.467 131.851 59.72 130.615 60.8115C130.907 61.0695 131.239 61.2591 131.61 61.3804C130.27 61.9154 129.032 62.5812 127.734 63.1961C126.393 63.8321 124.962 63.972 124.081 65.1749C123.269 66.2833 123.544 65.7115 122.333 66.1479C121.778 66.3483 121.294 66.9595 120.894 67.3698C120.206 68.0754 120.053 69.1437 119.661 67.6936C119.546 67.8704 119.094 68.9963 119.007 69.0248C118.514 68.5023 118.444 69.1217 118.168 69.3433C118.313 69.8248 118.106 70.1403 117.547 70.2898C117.264 70.5001 116.978 70.7063 116.688 70.908C115.638 71.6363 114.302 72.2612 113.562 73.3464C113.017 73.0247 112.815 72.4694 113.147 71.9026C112.105 72.8632 110.861 73.8499 110.579 75.3285C110.45 75.2035 110.299 75.1132 110.127 75.0577C109.704 75.3434 110.255 76.1947 110.523 76.3865C111.694 75.9318 110.231 76.0966 111.017 76.1699C111.241 76.1906 111.472 76.3583 111.719 76.3612C112.444 76.3707 113.125 76.3359 113.844 76.2254C115.429 75.9811 116.987 75.526 118.521 75.0697C120.192 74.5729 121.864 74.0768 123.498 73.4673C124.844 72.9655 126.167 72.4061 127.49 71.8487C128.018 71.626 128.546 71.4003 129.075 71.1792C130.08 70.7593 130.61 70.0695 130.47 71.2513C131.27 71.1183 131.964 69.9871 132.578 69.5254C133.443 68.8766 134.415 68.3926 135.44 68.0613C135.855 67.9272 136.159 67.7566 136.588 67.7553C136.799 67.7549 136.924 68.3478 137.057 68.3156C137.976 68.0928 137.557 67.5835 137.97 66.8498C138.874 65.2461 141.309 64.3592 142.804 63.4482C143.753 62.8698 144.427 62.0918 145.303 61.4512C145.713 61.1519 146.011 61.0194 146.44 60.8927C146.769 60.7953 147.172 61.5506 147.385 60.7916C146.621 60.479 145.99 60.0935 145.254 59.8654C144.734 59.7035 145.358 59.1499 144.533 59.4795C144.202 59.612 144.088 60.2529 143.966 60.5212C143.045 59.6985 140.455 60.551 139.362 60.8955C139.286 60.9192 138.949 60.7411 138.79 60.7519C138.159 60.7941 137.719 61.6433 137.304 62.0094C136.2 62.982 135.002 63.3886 133.642 63.9439C134.004 61.9667 136.664 61.1568 138.216 60.3995C140.485 59.2923 142.598 57.8791 145.082 57.2837C146.736 56.8866 148.929 56.5674 149.644 58.4911C150.071 59.6443 150.125 62.5092 148.678 63.0412C148.525 62.5029 149.015 62.0429 149.162 61.5759C147.722 62.1257 147.484 63.8561 146.39 64.7592C145.775 65.2664 145.556 65.4291 145.258 65.9194C144.963 66.4063 144.821 66.8605 144.13 67.3785C142.999 64.9766 143.19 68.2667 142.617 68.6795C142.847 68.5135 141.682 68.9983 141.821 68.947C141.767 68.9669 141.26 68.1445 140.93 68.1619C140.331 68.1934 140.446 68.853 140.158 69.1851C139.179 70.3088 137.915 71.0459 136.341 70.8691C136.304 71.6686 136.551 72.6239 135.459 72.6967L135.315 70.9241C134.721 71.5254 133.939 72.0964 133.455 72.7924C132.905 73.5845 132.964 74.0723 132.051 74.6002C131.097 75.1521 129.067 76.2395 127.932 76.3335C128.213 75.9351 128.163 75.5753 127.784 75.2548C127.213 75.8436 126.37 75.9016 125.762 76.4332C127.872 77.3148 124.141 77.2692 123.667 77.369C123.351 77.4361 123.074 77.7247 122.753 77.7897C122.327 77.8763 122.272 77.4282 121.905 77.5703C121.369 77.7781 121.586 78.3648 121.025 78.6597C120.622 78.8717 119.938 78.8688 119.482 79.07C118.398 79.5503 116.088 80.614 115.355 79.3238C114.984 81.5374 111.19 80.19 109.786 80.041C107.863 79.8368 104.514 78.9342 106.298 76.36ZM114.375 53.7116C114.647 53.4793 114.919 53.4963 115.192 53.7629C114.812 51.7597 117.746 50.787 119.026 49.9353C120.723 48.8058 122.722 46.6141 124.943 46.7876C124.564 47.0683 124.186 47.3491 123.808 47.6298C124.348 47.6998 124.888 47.7698 125.428 47.8397C125.123 48.2869 124.818 48.7337 124.513 49.1805C124.015 46.4328 121.414 49.9018 120.661 50.4073C119.903 50.9162 119.147 51.2955 118.473 51.9162C117.806 52.5311 117.203 53.6383 116.1 53.0851C115.999 54.6544 114.737 54.2287 113.865 55.0978C113.828 54.5525 114.141 54.167 114.375 53.7116ZM125.9 45.8779C128.585 44.8722 130.923 43.0126 133.453 41.6843C135.87 40.4152 138.336 39.2757 140.793 38.0919C142.039 37.4911 144.322 35.9375 145.747 36.7292C147.669 37.7983 145.023 38.1432 144.335 38.5134C144.081 36.8671 143.19 38.3585 143.723 39.2744C142.255 38.6409 139.056 41.1195 137.656 41.8031C137.34 41.958 137.482 42.0474 137.122 42.2296C137.033 42.2743 136.115 42.4834 135.852 42.5716C134.534 43.0126 133.666 42.6623 133.098 44.2527C132.979 43.8784 132.86 43.5037 132.742 43.129C131.917 44.9811 129.41 45.7918 127.806 46.887C127.393 47.1694 126.213 48.2646 125.689 48.0381C124.959 47.7226 125.252 46.1201 125.9 45.8779ZM174.34 51.462C175.473 51.5369 174.38 52.0657 174.691 52.4151C174.656 52.3758 175.374 52.9882 175.28 52.8201C175.407 53.0462 175.711 53.0379 175.867 53.4975C176.403 55.078 174.062 56.711 173.272 57.6079C171.737 59.3523 170.849 61.5614 169.249 63.2499C168.527 64.0126 167.808 64.5393 166.807 64.8238C166.105 65.0229 165.364 64.8097 164.72 65.4838C164.201 66.0266 164.318 66.3351 163.745 66.6237C162.735 67.1326 162.29 66.6862 161.307 67.786C160.461 65.4863 162.891 65.49 164.159 64.2047C165.91 62.4305 167.828 60.6405 169.47 58.7424C170.928 57.0559 171.513 55.5773 172.205 53.5285C172.423 52.8826 172.661 51.4976 173.263 51.0922C174.2 50.4612 173.637 51.4152 174.34 51.462ZM179.914 111.203C182.888 107.877 186.576 104.891 190.575 102.888C192.003 102.171 194.038 101.231 195.519 102.334C196.971 103.415 196.659 105.571 196.073 107.037C195.512 106.817 196.042 104.756 195.751 104.247C195.116 103.135 193.745 103.725 192.813 104.098C191.72 104.534 190.746 105.016 189.881 105.808C189.529 106.129 188.857 106.417 188.633 106.638C188.295 106.498 188.096 106.6 188.036 106.944C188.105 107.155 188.097 107.363 188.011 107.568C187.961 107.633 187.522 107.366 187.46 107.42C187.175 107.664 186.908 107.95 186.628 108.177C186.065 108.632 185.586 108.847 185.068 109.482C184.068 110.708 182.745 111.426 181.74 112.594C181.513 112.858 181.241 113.535 181.19 113.595C180.682 114.187 179.929 114.657 179.356 115.284C178.365 116.369 177.307 117.097 176.163 118.027C175.671 118.427 175.097 118.858 174.769 119.414C174.62 119.668 174.536 121.059 174.531 121.065C173.41 122.294 173.628 119.824 173.712 119.514C174.623 116.181 177.701 113.679 179.914 111.203ZM173.794 133.739C173.934 134.262 174.048 134.695 174.19 135.226C173.301 134.497 173.301 134.497 173.794 133.739ZM172.834 135.453C172.507 135.782 172.179 136.11 171.848 136.435C171.121 135.666 172.967 135.322 172.834 135.453ZM172.372 122.219C172.025 123.626 170.751 125.332 169.876 126.442C169.972 126.319 169.129 126.566 169.033 126.622C168.721 126.802 169.468 127.972 168.387 127.449C168.004 127.666 168.759 128.55 168.238 128.945C166.732 125.515 170.843 122.543 172.435 119.996C173.213 120.711 172.568 121.43 172.372 122.219ZM162.593 140.767C163.691 141.049 164.262 140.871 165.003 139.793C165.449 139.145 165.612 137.999 166.631 138.967L166.81 137.722C168.265 138.318 168.143 140.475 168.778 141.67C169.088 140.318 169.82 136.541 172.063 137.147C174.581 137.827 170.39 142.157 170.001 143.218C169.145 141.89 169.482 143.125 168.829 143.313C168.269 143.474 167.393 143.061 166.713 143.099C164.641 143.211 162.822 144.143 160.93 144.932C160.451 143.64 159.972 142.349 159.493 141.057C160.607 141.143 162.91 138.178 163.237 140.333C162.411 140.189 162.179 140.226 161.776 140.978C162.033 140.847 162.306 140.777 162.593 140.767ZM167.243 157.623C167.239 157.613 169.385 157.746 169.576 157.676C171.044 157.139 170.502 155.474 170.802 154.297C171.407 154.853 171.086 155.869 171.273 156.589C171.492 157.435 172.126 158.157 172.185 159.062C172.319 161.107 170.641 160.653 169.369 161.315C168.282 161.88 168.161 162.592 167.243 161.068C166.995 160.655 166.461 159.581 166.515 159.053C166.569 158.531 167.397 158.096 167.243 157.623ZM168.972 166.473L168.378 165.808C170.146 166.349 169.104 165.536 169.51 164.423C170.867 165.327 171.974 166.255 173.048 164.446L174.903 171.928C173.657 172.222 172.049 170.297 171.195 169.635C170.701 169.253 167.962 167.781 169.607 167.352C169.395 167.059 169.183 166.766 168.972 166.473ZM181.08 142.978C180.051 143.957 179.013 144.506 177.892 145.275C176.909 145.951 177.247 146.727 176.395 147.48C175.829 147.981 174.502 148.491 173.803 148.873C172.557 149.554 171.441 149.684 170.159 148.922C170.508 151.73 168.585 151.95 166.191 152.506C165.05 152.771 164.374 153.176 163.551 152.131C162.988 151.415 162.767 150.12 163.468 149.465C164.581 148.425 167.548 148.784 168.976 148.13C170.06 147.634 171.165 144.838 172.502 145.856C171.812 144.756 172.615 144.46 173.215 143.677C173.872 142.817 174.276 141.813 174.956 140.961C176.248 139.341 178.231 137.712 180.066 136.735C181.68 135.876 182.528 136.484 182.77 138.288C182.892 139.196 182.887 140.547 182.379 141.352C182.217 141.609 181.683 141.612 181.521 141.853C181.239 142.274 181.497 142.581 181.08 142.978ZM200.025 121.201C201.313 122.198 201.188 124.293 201.391 125.72C201.677 127.731 201.469 129.678 201.439 131.726C201.406 133.872 200.353 135.27 199.858 137.281C199.307 139.519 198.596 140.704 197.361 142.582C198.7 142.793 196.706 146.794 196.378 147.312C196.021 147.874 193.143 150.466 194.376 150.466C193.696 151.363 192.955 152.285 192.276 153.157C192.009 153.501 191.541 153.636 191.331 153.879C190.902 154.372 190.876 154.812 190.569 155.387C190.103 156.26 189.95 156.027 189.338 156.661C188.915 157.098 188.638 157.676 188.222 158.095C186.884 159.447 186.713 158.34 185.965 157.299C185.85 157.578 185.647 157.753 185.354 157.823C185.12 156.646 186.733 155.456 187.411 154.741C188.522 153.568 189.537 152.276 190.519 150.994C192.623 148.246 194.513 145.327 196.005 142.2C197.591 138.872 198.859 135.271 199.517 131.64C200.019 128.873 200.496 124.126 196.798 123.422C194.109 122.911 191.144 124.544 188.927 125.867C187.576 126.673 186.218 127.474 184.931 128.381C183.534 129.364 182.326 130.755 180.81 131.544C181.639 131.112 178.903 132.411 179.322 132.046C179.126 132.216 179.295 132.737 179.165 132.973C178.997 133.279 178.409 133.581 178.146 133.779C177.45 134.301 176.339 134.836 176.023 135.699C171.61 132.551 180.385 126.963 182.634 125.54C187.096 122.717 194.859 117.202 200.025 121.201ZM211.927 90.5884C211.885 88.3218 213.731 85.2275 214.977 83.3791C215.587 82.4744 216.562 82.5104 216.919 81.4434C217.125 80.8289 216.855 80.1847 216.916 79.5677C216.999 78.7334 217.361 78.0642 217.778 77.3471C221.551 70.8641 226.136 65.126 231.019 59.4699C233.427 56.6816 235.709 53.7861 238.306 51.1667C239.391 50.0728 242.306 46.14 243.974 46.5334C244.857 46.7416 245.371 48.0894 245.77 48.7772C246.429 49.9146 247.154 50.98 247.955 52.0259C250.07 54.7873 252.509 57.2112 255.39 59.1685C257.188 60.3916 259.006 61.5804 260.765 62.8619C262.213 63.9165 264.402 65.1223 265.436 66.603C266.47 68.0841 264.951 69.3383 264.121 70.568C262.831 72.4806 261.644 74.4623 260.349 76.3728C259.834 76.0026 259.967 75.2507 259.614 74.7766C259.301 74.3563 258.858 74.1853 258.426 73.9257C257.598 73.4292 256.784 72.8222 256.036 73.6541C254.726 75.1099 256.527 78.5512 258.468 78.1736C258.697 79.6103 254.821 81.9767 253.849 82.7676C250.868 85.1932 247.793 87.302 243.855 87.5214C242.261 87.61 240.603 87.4891 239.089 86.9558C238.363 86.7003 237.561 86.3496 237.005 85.7927C236.339 85.1261 236.169 84.134 235.523 83.474C234.963 82.9013 234.194 82.8131 233.634 82.2384C233.073 81.6633 232.796 80.7548 232.569 80.0099C232.124 78.5545 232.04 77.0196 231.613 75.5608C231.356 74.6834 231.145 73.5104 230.306 74.3534C229.089 75.5782 229.7 79.4294 230.012 80.8968C230.458 82.9903 231.503 84.6781 232.599 86.4792C233.786 88.4332 234.225 90.2455 234.437 92.5063C234.836 96.7385 236.05 100.8 237.94 104.607C238.735 106.211 239.688 107.718 240.547 109.285C240.948 110.015 241.847 112.509 242.938 112.496C244.681 112.474 242.198 107.391 241.854 106.537C239.944 101.811 238.12 96.8428 237.711 91.725C240.448 92.4301 243.432 93.0993 246.267 92.6525C244.437 96.7443 246.348 100.818 246.114 105.03C245.998 107.142 245.913 109.091 245.957 111.197C245.995 113.043 245.161 114.889 244.44 116.559C243.009 119.875 241.206 123.966 238.547 126.507C236.324 128.63 233.35 128.796 230.445 128.307C223.838 127.194 219.496 122.115 216.723 116.346C214.942 112.641 213.58 108.685 212.734 104.66C211.755 100.002 212.014 95.3128 211.927 90.5884ZM220.508 59.1979C214.342 54.7364 223.302 49.6699 227.863 50.3597C228.933 50.5212 230.901 50.9634 230.801 52.3597C230.719 53.5008 228.816 54.7728 228.085 55.4771C226.001 57.487 223.88 61.6371 220.508 59.1979ZM265.365 158.331C265.153 158.142 263.428 158.607 264.111 157.586C264.679 156.738 266.254 157.801 266.827 158.019C266.355 158.345 265.945 158.85 265.365 158.331ZM239.689 212.292C239.159 212.357 238.605 210.928 240.516 211.996C240.24 212.094 239.965 212.193 239.689 212.292ZM239.635 235.587C239.701 236.228 239.896 236.65 239.441 237.116C239.057 236.642 239.007 235.973 239.635 235.587ZM240.41 245.213C240.354 245.561 240.298 245.91 240.242 246.258C239.801 246.035 239.36 245.812 238.919 245.588C239.416 245.463 239.913 245.338 240.41 245.213ZM240.95 237.096C241.608 237.342 241.302 236.556 241.779 236.445C241.95 237.264 241.739 237.965 241.269 238.64C241.225 238.48 240.984 237.108 240.95 237.096ZM257.755 179.014C256.832 178.896 256.692 179.871 256.005 180.249C255.561 180.493 254.209 180.31 253.957 180.777C254.29 180.873 254.623 180.97 254.956 181.066C254.194 181.476 253.432 181.888 252.669 182.298C254.503 182.298 256.413 181.423 258.234 181.68C259.004 181.789 259.569 182.049 260.051 182.675C260.344 183.055 260.602 183.666 260.649 184.132C260.7 184.635 260.308 184.983 260.377 185.223C261.198 185.246 261.101 186.592 260.917 187.14C260.517 188.33 258.93 190.193 257.508 189.438C258.103 190.283 257.951 190.765 257.071 191.254C257.151 190.975 257.21 190.487 256.76 190.536C256.645 191.004 256.689 191.746 256.307 192.098C255.879 192.493 255.497 192.032 255.088 192.288C254.604 192.593 254.749 193.071 254.368 193.402C253.864 193.838 253.792 193.528 253.189 193.613C252.276 193.742 252.858 193.175 252.127 193.914C251.874 194.169 251.917 194.833 251.507 195.207C250.719 195.923 248.618 196.67 247.863 195.751C246.049 198.626 240.612 199.316 238.082 197.046C234.045 193.427 241.571 186.066 244.056 183.733C246.55 181.392 249.32 179.37 252.123 177.418C253.715 176.309 255.35 175.303 257.018 174.315C258.048 173.705 259.34 172.591 260.605 172.698C261.74 172.794 262.709 173.675 263.904 173.849C264.767 173.975 266.446 174.183 265.356 175.354C264.846 175.902 262.845 176.787 262.163 176.92C261.763 176.999 261.341 176.849 260.944 176.93C260.272 177.068 259.811 177.635 259.08 177.563C259.312 178.647 258.889 179.158 257.755 179.014ZM269.7 138.754C269.7 139.603 268.152 139.391 267.828 139.103C267.296 138.629 267.277 137.211 267.08 136.566C267.98 136.793 269.699 137.622 269.7 138.754ZM257.225 110.764C260.478 108.091 263.898 105.64 267.514 103.481C268.808 102.708 270.636 101.148 272.245 101.343C272.919 101.425 274.314 102.2 273.806 103.054C273.711 103.214 272.96 103.278 272.728 103.394C272.465 103.525 272.259 103.887 272.015 104.066C270.326 105.305 268.296 106.066 266.601 107.336C265.208 108.378 263.91 109.544 262.41 110.438C260.972 111.296 259.469 111.838 258.103 112.788C258.13 112.769 256.327 113.418 256.68 113.536C255.097 113.006 256.769 111.139 257.225 110.764ZM278.913 109.769C280.845 108.998 282.736 108.064 284.759 107.546C285.768 107.288 286.805 107.094 287.85 107.21C288.027 106.899 288.264 106.83 288.56 107.004C288.79 107.358 289.094 107.63 289.472 107.82C290.048 108.263 292.17 108.843 291.746 109.821C291.466 110.468 289.338 110.522 288.754 110.668C286.994 111.106 285.353 112.092 283.539 112.335C283.369 112.357 282.814 112.151 282.807 112.152C282.1 112.307 281.511 113.041 280.903 113.393C279.595 114.15 277.715 114.277 276.775 115.585C279.818 117.647 282.457 115.601 285.132 114.044C286.735 113.112 288.455 112.439 290.206 111.841C291.121 111.529 292.044 111.204 292.972 110.93C293.356 110.79 293.75 110.689 294.155 110.628C294.532 110.553 294.802 110.69 294.964 111.039C296.086 111.002 296.182 110.299 296.856 111.611C297.808 113.461 296.352 113.367 294.984 113.594C293.087 113.909 291.157 114.618 289.288 115.088C288.857 115.196 285.076 116.073 285.071 116.104C284.9 117.297 295.751 116.192 296.683 116.013C298.326 115.697 300.09 114.799 301.791 115.015C303.098 115.181 306.075 117.098 303.99 118.372C303.58 116.408 302.171 118.03 301.436 118.693C300.456 119.575 299.053 119.49 297.709 119.836C295.871 120.308 291.167 122.079 289.862 119.821C290.275 121.8 282.776 120.795 281.745 120.729C280.74 120.665 279.443 120.879 278.472 120.592C277.838 120.405 277.486 119.993 276.89 119.901C276.743 120.058 276.568 120.165 276.365 120.222C276.062 120.069 275.789 119.875 275.546 119.639C273.538 118.716 270.431 118.206 271.547 115.266C272.599 112.493 276.36 110.786 278.913 109.769ZM297.736 111.482C297.786 111.31 297.836 111.137 297.885 110.964C297.892 111.494 299.155 111.72 299.009 112.406C298.685 113.925 297.228 111.642 297.103 111.393C297.314 111.423 297.524 111.453 297.736 111.482ZM305.446 114.007C305.592 114.629 307.272 115.954 306.856 116.259C306.194 115.359 304.363 115.768 305.446 114.007ZM277.117 170.791C277.732 169.572 279.591 171.648 279.395 169.566C280.405 169.658 279.774 170.427 280.985 170.089C281.439 169.962 281.746 169.459 282.299 169.343C282.447 169.312 283.084 169.363 283.304 169.356C284.032 169.334 286.887 169.252 284.922 168.297C286.022 167.57 286.157 167.939 287.15 168.605C286.895 167.228 288.355 168.01 289.035 168.182C288.55 167.396 289.754 166.561 290.144 166.03C290.004 166.848 290.078 167.763 291.261 167.24C291.556 167.11 291.49 166.532 291.724 166.438C292.152 166.265 292.391 166.579 292.545 166.561C292.696 166.544 293.014 166.629 293.332 166.51C293.745 166.354 293.546 165.8 294.069 165.718C294.41 165.665 294.659 166.166 295.075 166.17C295.288 166.172 295.645 165.955 295.807 165.966C295.836 165.968 296.039 165.478 296.289 165.466C296.654 165.448 296.803 166.427 296.936 166.617C297.575 167.524 298.425 168.115 299.406 168.599C297.632 170.225 294.054 170.053 291.823 170.601C290.615 170.898 289.584 171.327 288.479 171.879C288.212 172.053 287.982 172.266 287.79 172.518C287.634 172.414 287.477 172.31 287.32 172.206C286.714 172.243 286.141 171.943 285.459 172.058C283.353 172.414 281.704 173.992 279.563 174.343C278.601 174.501 277.811 174.722 277.184 173.888C276.635 173.157 276.726 171.569 277.117 170.791ZM274.229 161.072C274.707 161.475 274.132 162.79 275.057 162.647C275.712 162.545 275.582 161.528 276.097 161.312C276.773 161.03 277.182 161.701 277.818 161.639C279.003 161.522 278.935 160.487 277.933 160.032C278.975 159.757 279.309 160.989 280.231 160.977C281.442 160.963 281.153 159.534 282.183 159.297C282.63 159.194 282.481 159.85 282.77 159.931C283.35 160.094 283.753 159.815 284.266 159.569C284.725 159.349 285.052 158.924 285.553 158.78C285.781 158.714 286.361 158.835 286.528 158.712C286.866 158.466 287.168 157.508 287.5 157.382C287.432 157.407 288.521 157.953 288.677 158.004C288.581 158.409 288.36 158.457 288.012 158.149C288.012 159.062 290.55 159.346 290.029 158.218C291.401 158.786 290.379 159.078 290.242 159.871C290.188 160.19 290.002 160.182 290.057 160.519C290.082 160.674 290.802 160.54 290.793 160.752C290.732 162.114 286.389 162.533 285.566 162.653C283.863 162.902 282.251 163.321 280.609 163.836C279.386 164.22 277.278 165.32 275.977 165.251C274.106 165.153 273.862 162.712 274.229 161.072ZM270.048 147.167C269.592 145.651 271.056 142.52 272.962 142.911C273.431 143.007 273.546 143.395 273.91 143.568C274.418 143.809 275.243 143.682 275.683 143.931C276.67 144.489 276.173 145.913 277.162 146.427C275.601 146.805 270.773 149.576 270.048 147.167ZM271.855 153.056C272.527 152.695 273.618 152.648 274.076 151.953C274.305 152.111 274.736 153.072 275.146 152.925C275.337 152.856 275.535 152.336 275.521 152.336C275.886 152.326 275.958 151.832 276.516 151.887C277.028 151.939 277.601 152.554 278.057 152.783C277.979 151.258 278.369 151.112 279.606 150.296C279.877 150.117 280.104 149.445 280.354 149.174C280.115 150.774 280.718 150.783 281.996 151.024C283.599 151.325 284.597 152.186 285.239 153.734C283.874 153.467 282.112 153.788 281.574 155.256C280.484 153.265 276.523 156.012 275.242 156.575C274.291 156.993 273.184 157.554 272.387 156.581C271.825 155.895 272.147 155.07 272.159 154.461C272.162 154.27 272.36 154.259 272.342 153.974C272.318 153.61 271.845 153.465 271.855 153.056ZM286.434 184.368C286.073 184.505 284.217 184.581 284.205 183.967C284.195 183.423 287.481 183.971 286.434 184.368ZM283.419 182.379C282.014 183.245 280.443 180.194 279.927 179.315C281.4 179.504 282.119 178.272 282.987 177.335C283.813 179.144 285.066 178.188 286.385 177.584C287.94 176.871 289.645 176.866 291.238 176.294C291.735 176.115 292.194 175.85 292.679 175.646C293.07 175.5 293.46 175.35 293.848 175.196C294.123 174.948 294.221 174.642 294.141 174.279C294.01 173.974 294.099 173.782 294.408 173.702C294.775 173.812 295.149 173.875 295.532 173.892C296.146 173.771 297.028 173.191 296.287 172.567C297.081 171.846 297.876 172.563 298.641 172.879C298.459 172.361 298.278 171.843 298.097 171.325C298.476 171.486 299.602 173.059 299.717 173.051C300.445 172.996 300.369 172.019 300.787 171.625C301.029 171.923 301.098 174.142 302.047 173.395C302.453 173.075 301.579 171.986 301.364 171.738C302.449 171.983 303.397 173.279 303.691 174.285C303.175 174.36 302.699 174.256 302.261 173.974C301.981 175.375 304.575 174.807 304.994 175.54C305.817 176.973 300.468 177.968 299.771 178.101C298.377 178.367 296.731 178.466 295.452 179.084C294.228 179.676 293.938 179.845 292.507 179.956C290.873 180.083 289.28 180.621 287.7 181.04C286.328 181.403 284.635 181.63 283.419 182.379ZM313.273 131.08C314.563 130.616 318.907 128.208 320.013 129.279C319.896 129.165 320.81 131.054 320.801 130.935C320.88 131.918 320.856 132.313 319.646 132.784C318.78 133.121 318.025 132.405 317.246 132.689C316.39 133.002 316.989 133.555 316.549 133.942C316.066 134.365 315.135 134.548 314.534 134.734C313.063 135.188 311.581 135.568 310.117 136.057C307.139 137.053 303.985 137.979 300.924 138.684C298.637 139.21 294.755 140.518 292.647 138.973C292.441 139.851 291.939 139.731 291.241 139.859C290.693 139.96 289.702 140.231 289.215 140.245C288.405 140.268 286.152 140.056 286.462 138.919C286.377 139.232 288.215 138.161 287.897 138.094C288.677 138.259 288.424 137.866 289.063 137.647C289.899 137.362 290.771 137.377 291.624 137.075C293.773 136.313 295.576 135.324 297.845 134.847C303.027 133.756 308.273 132.879 313.273 131.08ZM105.539 248.505C105.119 248.516 104.792 247.323 106.07 248.175C105.893 248.285 105.716 248.395 105.539 248.505ZM95.4482 246.962C94.8772 247.108 94.6495 246.789 94.7658 246.006C95.5621 245.691 95.7894 246.01 95.4482 246.962ZM87.658 245.364C87.5119 244.666 88.0295 244.508 88.4986 244.195C88.4514 245.12 88.4514 245.12 87.658 245.364ZM68.0571 239.619C67.2675 239.446 66.2154 238.673 66.0345 239.97C65.9024 239.67 65.2283 238.258 65.5177 237.931C65.6688 237.76 66.2411 238.551 66.1802 238.472C66.8713 237.075 68.0625 238.761 68.7283 239.26C68.5047 239.38 68.2807 239.5 68.0571 239.619ZM273.356 85.1339C273.628 84.5576 273.95 84.3746 274.32 84.5853C273.739 85.9335 271.773 86.6643 273.356 85.1339ZM287.016 72.4785C287.503 73.3915 286.77 73.7774 286.247 74.5364C286.553 73.7178 286.765 73.1506 287.016 72.4785ZM346.384 161.603C348.14 161.603 351.882 160.676 352.941 162.683C353.642 161.319 354.439 163.877 355.047 164.288C355.115 164.334 355.553 163.999 355.757 164.123C356.064 164.308 356.329 164.815 356.505 165.116C357.036 166.024 357.264 167.103 357.558 168.101C354.49 168.101 351.344 167.387 348.279 167.127C346.267 166.957 344.294 166.952 342.28 167.06C341.879 167.082 341.084 166.95 340.742 167.025C340.394 167.102 339.763 167.81 339.38 167.696C339.976 168.815 347.607 171.522 348.189 170.284C347.499 169.866 345.967 169.546 345.968 168.537C345.969 167.407 347.405 167.409 348.166 167.443C349.831 167.515 352.618 168.069 353.301 169.8C353.593 170.542 353.683 172.41 353.362 173.127C353.154 173.589 352.803 174.145 352.246 174.239C352.018 174.278 351.69 173.974 351.655 173.982C350.513 174.224 348.399 175.141 347.154 173.848C346.255 175.01 341.929 173.741 340.605 173.302C338.288 172.535 335.099 171.483 333.692 169.321C331.977 166.687 335.464 164.46 337.466 163.39C340.202 161.926 343.329 161.604 346.384 161.603ZM358.073 167.694C358.612 167.846 359.15 167.998 359.688 168.15C359.544 169.094 357.42 168.347 358.073 167.694ZM374.35 202.01C374.515 198.228 373.422 194.897 372.79 191.238C372.634 190.331 372.794 188.746 372.105 188C371.447 187.287 369.978 187.867 369.92 186.607C369.271 187.366 369.337 187.524 368.538 186.651C368.684 187.026 368.705 187.406 368.602 187.794C368.106 187.51 366.31 186.566 366.461 187.856C364.984 187.53 365.412 186.606 364.569 185.901C364.449 185.8 363.969 186.156 363.781 186.005C363.442 185.73 363.275 185.481 362.989 185.127C362.626 185.566 362.131 185.883 361.688 186.23C361.43 185.668 360.927 185.256 360.324 185.119C360.888 186.3 362.283 187.83 360.37 188.502C359.227 188.903 357.356 188.411 356.146 188.505C351.662 188.852 346.75 187.875 342.415 186.807C337.961 185.709 333.456 184.16 329.451 181.896C328.597 181.413 328.059 180.842 327.324 180.243C326.609 179.661 326.089 179.569 325.23 179.197C323.684 178.527 322.269 177.452 321.093 176.255C318.563 173.68 316.213 170.312 316.917 166.542C317.62 162.785 320.203 159.848 322.966 157.374C326.231 154.451 329.916 152.011 333.827 150.044C335.576 149.165 340.05 145.862 341.778 147.794C342.882 149.029 342.261 150.605 340.752 150.879C340.38 150.947 339.991 150.697 339.615 150.868C339.072 151.115 339.263 151.407 339.039 151.613C338.65 151.97 338.237 152.527 337.656 152.837C335.628 153.918 333.668 154.775 331.73 156.091C330.837 156.698 329.977 156.959 329.189 157.488C328.406 158.015 328.228 158.886 327.174 158.348C327.549 159.881 325.297 161.521 324.414 162.46C323.046 163.913 321.407 165.768 322.045 167.918C323.294 172.128 328.938 175.325 332.55 177.175C337.057 179.484 342.028 181.322 347.047 182.083C349.542 182.461 352.121 182.694 354.635 182.934C356.592 183.121 359.596 182.437 361.004 184.2C361.047 182.144 367.467 182.326 368.833 182.063C366.094 172.699 360.715 164.373 354.964 156.595C352.142 152.776 349.37 148.849 346.154 145.349C342.632 141.516 338.608 138.092 334.785 134.566C327.286 127.649 318.805 121.477 310.175 116.04C301.565 110.615 292.648 105.276 283.216 101.408C272.442 96.991 261.1 94.0856 249.745 91.6111C251.285 89.6485 253.791 88.6912 255.763 87.2552C256.454 86.7525 257.387 85.5459 258.284 85.3811C259.255 85.2023 260.02 86.2474 260.711 86.772C262.696 88.2775 264.069 87.6382 266.342 87.5475C267.702 87.4933 270.923 88.2506 271.496 86.4109C272.259 87.4262 271.153 88.2402 270.587 88.9847C270.999 89.5594 271.331 88.9632 271.738 88.8733C271.864 88.7694 271.989 88.6651 272.114 88.5611C272.316 88.2688 272.498 88.2672 272.66 88.5553C272.903 88.9205 273.147 88.8398 273.393 88.3127C273.461 88.2705 273.528 88.2278 273.595 88.1856C273.889 88.0291 274.173 87.7815 274.446 87.5864C276.512 86.1103 278.353 84.8528 280.633 83.7655C282.548 82.8529 281.518 81.1068 282.781 79.8737C283.067 79.5946 283.547 79.7346 283.853 79.4981C284.152 79.2659 284.197 79.0025 284.415 78.7537C284.94 78.1553 284.315 77.461 285.654 78.1934L285.171 75.4768C287.795 78.0224 287.784 70.6968 288.143 69.6128C288.096 69.7561 288.379 68.6468 288.378 68.6563C288.455 66.4581 288.755 64.8648 286.181 64.7372C287.155 64.124 287.454 65.3215 287.904 64.0818C288.129 63.4607 287.425 62.3932 288.547 62.7936C288.783 61.4736 288.55 60.4053 288.256 59.1225C287.954 57.8095 288.131 56.9334 288.145 55.6204C288.16 54.131 287.463 52.6342 287.24 51.1676C287.065 50.019 287.245 48.2074 285.76 48.6294C285.552 48.3027 286.285 47.2977 286.255 46.8009C286.209 46.029 285.371 45.2448 285.134 44.5036C284.785 44.8639 284.293 44.984 283.818 44.8212C284.264 43.8142 283.845 43.4759 283.419 42.6076C283.174 42.1104 283.322 41.5613 282.798 41.2048C282.498 41.0003 281.986 41.3448 281.751 41.105C281.246 40.5916 281.433 39.9104 281.086 39.2339C280.651 38.3855 279.656 37.7374 278.971 37.1006C275.12 33.521 270.937 30.7853 265.815 29.3866C260.647 27.9755 254.622 27.4699 249.471 29.0976C247.412 29.7481 245.585 29.6814 243.732 30.8963C243.131 31.2905 243.066 31.1849 242.761 31.842C242.691 31.9952 243.331 32.4031 242.939 32.6536C242.513 32.9256 242.043 32.3724 241.826 31.9132C239.146 33.8535 236.634 36.4402 235.107 39.4061C233.59 42.3534 233.451 45.8158 232.872 49.0186C230.2 45.9661 226.586 44.5028 222.657 45.9703C219.232 47.2489 216.578 50.0595 215.909 53.7008C215.5 55.9206 215.946 58.1685 216.954 60.1714C217.39 61.0367 217.918 61.9949 218.72 62.5775C219.354 63.0379 220.44 62.9733 220.738 63.8039C221.196 65.0763 218.553 67.8245 217.867 68.9383C216.626 70.954 215.473 73.0354 214.595 75.237C211.448 70.7912 208.435 65.9355 204.856 61.8363C201.479 57.9673 197.453 54.4975 193.504 51.2272C185.308 44.4399 176.785 38.0633 167.617 32.6561C159.081 27.6211 148.769 24.8257 138.82 25.8141C129.099 26.7801 121.656 32.9281 115.394 40.0189C103.352 53.6528 95.9766 73.0851 95.2561 91.2339C95.0395 96.6859 95.4548 102.067 96.8014 107.355C97.4427 109.873 97.3496 112.349 97.7222 114.899C98.1429 117.776 98.8704 120.643 99.5739 123.461C102.254 134.196 105.668 144.923 109.499 155.303C111.491 160.701 113.902 165.978 117.162 170.737C118.668 172.936 120.619 174.656 122.24 176.744C123.812 178.768 124.228 181.254 124.573 183.738C125.402 189.695 125.952 195.677 126.451 201.669C126.662 204.209 126.91 206.726 127.246 209.248C127.539 211.446 126.801 211.338 124.952 212.085C125.327 210.109 116.49 211.453 115.656 211.588C114.748 211.735 113.786 211.737 113.071 211.854C112.272 211.984 111.489 212.172 110.568 212.146C109.215 212.107 106.68 211.761 106.163 213.489C105.808 211.486 103.458 213.676 105.196 213.304C103.412 213.504 101.592 213.172 99.7859 213.34C97.7164 213.532 95.6292 213.715 93.5742 214.026C92.1436 214.243 90.7784 214.794 89.3453 214.954C87.5115 215.159 85.5977 215.14 83.746 215.303C76.916 215.905 69.8368 217.395 63.1977 219.101C61.6938 219.487 59.9659 219.762 58.5292 220.382C58.1445 220.548 57.7983 220.919 57.4298 221.061C56.812 221.3 56.8965 221.135 56.3479 221.244C53.0606 221.901 49.6695 222.975 46.3826 223.817C44.5595 224.284 41.594 224.706 40.1067 225.978C39.44 226.548 38.8575 227.559 39.9257 228.206C40.7791 228.723 41.9973 227.898 42.6879 227.451C42.0727 229.055 40.912 229.854 41.5389 231.679C42.0337 233.12 43.1509 234.897 44.8696 233.967C45.0999 234.502 45.193 235.567 45.8708 235.764C46.4799 235.941 46.9209 235.169 47.5176 235.351C47.7312 235.416 47.6501 235.82 47.8414 235.925C48.171 236.107 48.5051 236.184 48.8827 236.311C49.2074 236.422 49.7299 236.648 50.0686 236.672C50.2835 236.687 50.7899 236.319 50.7883 236.319C51.2818 236.394 51.5472 237.339 51.9025 237.612C52.3638 237.966 52.7447 238.047 53.3223 238.175C54.5231 238.442 56.0709 238.899 56.8634 237.67C56.682 238.547 57.8758 238.461 58.4024 238.573C58.3441 238.11 58.0886 237.687 57.6944 237.433C58.872 237.511 58.3946 238.681 59.2649 238.99C59.8852 239.21 59.8148 238.651 60.2893 238.589C60.9146 238.508 61.3891 238.961 62.3654 238.543C62.577 239.483 62.6545 240.431 63.8093 240.572C64.4871 240.654 66.0676 239.43 65.9781 240.449C67.4924 240.005 68.0671 240.305 68.8584 241.64C68.9921 240.82 69.6393 241.058 70.233 241.007C71.1742 240.927 71.1982 241.003 71.9278 240.47C71.9945 240.421 72.5684 239.107 72.8234 239.924C72.9381 240.29 72.18 241.151 71.8992 241.37C72.2479 241.546 73.3903 242.164 73.8296 242.05C74.2097 241.952 74.2109 241.303 74.6677 241.269C74.5559 241.643 74.4445 242.016 74.3323 242.39C75.2208 242.519 75.9633 241.925 76.6651 241.489C77.3342 243.181 79.2468 242.228 80.2869 243.501C80.8372 244.175 80.8629 244.686 81.9113 244.862C82.9841 245.042 83.9211 244.572 84.8329 245.456C84.5439 244.907 83.8238 244.452 84.5393 243.862C85.0263 244.553 85.2776 245.385 85.8391 246.028C85.9165 245.701 85.9939 245.374 86.0714 245.047C87.5351 246.613 89.3776 246.627 91.2525 247.494V246.349C92.5949 248.398 92.6665 247.101 94.2702 246.264C94.1613 246.867 94.052 247.469 93.9431 248.071C95.0971 247.984 96.1753 249.352 97.1227 248.19C97.6949 249.15 98.3885 248.677 99.3263 248.982C99.8596 249.156 100.257 249.681 100.776 249.871C101.554 250.156 101.786 250.142 102.518 250.39C103.17 250.611 103.54 251.04 104.355 251.177C104.885 251.267 105.365 251.26 105.872 251.236C106.068 251.226 106.003 250.785 106.438 250.888C107.111 251.048 107.612 251.891 108.097 252.324C108.825 250.492 110.866 252.946 111.852 253.273C111.947 252.803 111.93 252.237 112.269 251.851C112.669 252.726 112.821 253.461 113.65 254.024C114.128 254.349 114.83 254.582 115.382 254.7C115.731 254.775 116.366 254.686 116.585 254.793C116.96 254.977 117.097 255.466 117.476 255.512C117.698 255.539 118.027 254.954 118.194 255C118.956 255.208 119.379 256.133 120.148 256.634C122.438 258.123 125.319 258.268 127.869 258.594C128.509 258.676 128.602 258.501 129.122 258.877C129.4 259.077 129.274 259.688 129.615 259.859C130.901 260.503 130.901 259.128 131.171 258.274C131.596 258.835 131.67 259.576 132.251 260.022C132.569 260.013 132.887 260.02 133.204 260.044C133.383 260.248 133.501 260.484 133.555 260.751C134.325 261.271 135.198 261.09 135.993 261.48C136.254 261.608 136.716 262.382 137.037 262.604C137.613 263.003 138.502 263.216 139.159 263.389C140.537 263.751 142.513 263.269 143.333 264.708C144.421 263.541 144 264.935 144.739 265.228C145.176 265.4 145.832 264.713 146.316 264.782C147.188 264.904 147.502 265.848 147.781 266.534C148.312 266.415 147.947 264.914 147.932 264.584C148.592 264.507 148.738 266.244 148.852 266.625C149.894 266.124 148.184 264.563 149.304 264.063C149.201 265.392 150.261 266.487 148.369 266.678C148.63 267.478 154.733 268.368 155.157 267.661C155.251 268.968 156.129 267.747 156.453 267.3C156.489 268.062 156.23 269.144 157.085 269.499C157.666 269.739 158.977 269.117 159.206 268.547C159.466 269.417 159.902 269.389 160.445 269.942C160.817 270.322 161.063 270.98 161.454 271.298C162.173 271.883 163.511 271.794 164.349 271.663C165.989 271.407 165.795 271.093 166.379 272.797C166.511 272.15 166.925 270.798 167.647 271.803C168.107 272.442 167.129 273.85 166.846 274.411C167.478 274.064 168.105 273.653 168.824 273.503C168.864 273.725 168.901 274.195 168.795 274.4C168.816 274.358 169.583 274.873 169.868 275.015C169.799 274.981 170.092 273.7 170.084 273.742C171.096 274.367 170.394 275.56 171.29 276.176C171.521 276.336 172.065 276.15 172.345 276.247C172.832 276.416 173.253 276.872 173.687 277.139C173.341 276.676 173.391 275.897 173.414 275.362C173.634 275.483 173.792 275.939 174.014 275.975C174.098 275.989 174.97 276.104 174.964 276.1C175.871 276.735 175.684 276.815 174.906 277.579C175.184 278.016 176.347 277.256 176.662 277.13C176.727 277.301 176.744 277.922 176.868 278.033C176.943 278.217 177.019 278.401 177.094 278.585C177.326 278.412 177.575 278.354 177.841 278.411C178.009 278.47 179.322 279.003 179.411 278.821C179.124 278.728 178.863 278.586 178.63 278.394C179.388 277.713 179.886 277.351 180.584 278.334C180.671 278.458 180.37 278.903 180.459 279.064C180.792 279.665 181.477 280.144 181.942 280.634C182.135 279.957 181.687 278.264 182.756 278.326C183.61 278.375 184.26 280.444 183.964 281.088C184.304 280.716 186.331 280.347 186.713 280.463C187.795 280.791 187.492 281.792 188.823 280.326C189.731 280.952 188.931 281.19 189.094 281.953C189.334 282.003 189.561 281.944 189.776 281.776C189.615 285.021 192.01 282.541 193.564 283.037C194.175 283.231 194.331 283.924 194.986 284.127C195.333 284.233 195.718 283.98 196.055 284.042C196.325 284.004 196.593 283.956 196.86 283.899C197.198 283.73 197.356 283.919 197.336 284.467C197.879 284.749 197.674 284.859 198.309 284.914C198.718 284.949 199.094 284.524 199.559 284.596C200.361 284.722 200.255 285.338 200.768 285.659C201.229 285.949 201.749 285.94 202.317 285.884C202.607 285.855 203.42 285.482 203.517 285.481C204.124 285.473 203.795 285.344 204.524 285.865C205.091 286.271 205.329 286.535 206.026 286.722C206.824 286.936 208.241 287.404 208.779 286.827C209.505 287.915 210.073 287.117 211.031 287.189C211.522 287.226 211.599 287.417 212.036 287.493C212.743 287.616 213.625 287.509 214.378 287.751C215.563 288.132 215.697 288.323 216.908 288.374C217.127 288.289 217.346 288.203 217.564 288.118C217.629 288.483 217.801 288.781 218.08 289.011C218.758 289.153 219.203 288.811 219.762 288.437C220.178 289.734 221.53 289.847 222.686 290.018C224.551 290.293 226.335 290.444 228.134 291.057C229.653 291.574 231.175 292.156 232.636 292.819C233.922 293.402 235.136 294.274 236.591 293.865C239.888 292.937 243.083 289.552 245.841 287.609C249.108 285.308 252.631 283.412 256.044 281.342C269.634 273.105 283.991 266.137 297.39 257.593C304.705 252.929 311.493 247.386 319.349 243.613C318.23 248.234 316.327 252.925 316.671 257.764C316.809 259.713 317.383 262.017 318.895 263.378C320.765 265.061 322.847 263.989 324.635 262.787C328.466 260.211 331.021 256.452 333.889 252.923C337.28 248.747 339.911 244.261 342.401 239.503C342.998 240.34 342.544 241.744 342.553 242.672C342.564 243.857 342.884 244.999 343.434 246.057C344.852 248.788 347.552 249.45 349.991 247.579C354.686 243.979 357.41 237.567 359.926 232.404C361.36 235.073 363.397 238.432 366.842 236.526C369.685 234.953 371.355 231.438 372.225 228.461C374.764 219.771 373.96 210.918 374.35 202.01Z" fill="black"/>
<path fill-rule="evenodd" clip-rule="evenodd" d="M370.038 149.81C369.714 149.023 369.571 149.151 370.168 148.388C370.632 148.845 370.26 149.223 370.038 149.81ZM384.406 197.474C383.494 194.882 384.057 192.067 383.504 189.409C383.249 188.189 382.848 187.005 382.704 185.764C382.64 185.213 382.149 182.732 382.483 182.341C381.455 181.719 381.451 181.258 381.214 180.037C381.58 179.648 381.534 179.316 381.075 179.041C380.775 178.678 380.475 178.315 380.175 177.952C381.487 178.594 380.711 176.952 380.577 176.006C380.471 175.258 380.4 174.478 380.151 173.761C379.844 172.88 379.161 172.435 380.581 172.435C380.114 171.903 379.415 171.355 379.183 170.705C378.848 169.768 379.4 168.531 378.718 167.704C378.337 167.243 376.376 167.062 376.72 166.066C376.895 165.559 377.69 165.937 377.936 165.582C378.903 164.184 376.048 163.605 375.908 163.01C375.727 162.239 376.758 162.067 376.821 161.346C376.883 160.64 375.786 159.481 375.496 158.85C375.101 158.946 374.668 159.571 374.216 159.272C374.13 159.216 374.259 156.773 374.156 156.449C374.055 156.13 373.849 155.285 373.775 155.128C373.482 154.507 372.645 154.204 372.512 153.47C372.432 153.032 374.149 152.369 372.18 152.348C372.887 151.102 371.592 150.344 371.12 149.279C370.514 147.91 370.156 146.431 369.534 145.055C368.928 143.717 368.251 142.447 367.378 141.264C366.588 140.193 366.247 139.163 365.615 138.032C365.489 137.932 365.363 137.833 365.237 137.734C364.71 137.81 364.541 137.57 364.73 137.014C364.327 136.417 364.027 135.78 363.672 135.157C363.259 134.433 362.702 133.843 362.276 133.138C361.71 132.205 361.543 131.152 360.903 130.215C360.117 129.063 359.232 128.047 358.503 126.851C357.59 125.354 356.578 124.423 355.429 123.263C354.882 122.711 354.816 121.331 354.145 120.547C353.415 119.693 352.695 119.461 352.189 118.34C351.53 116.881 350.564 116.185 349.624 114.924C348.848 113.884 348.469 112.688 347.614 111.682C346.879 110.818 346.045 110.028 345.261 109.209C344.27 108.174 343.539 106.917 342.508 105.933C342.656 106.075 341.611 105.246 341.663 105.272C341.432 105.154 340.685 105.06 340.794 105.124C339.238 104.209 337.288 100.861 334.946 102.635C333.714 103.568 334.305 105.279 335.165 106.208C335.535 106.607 337.454 108.575 337.868 107.745C338.316 108.379 339.694 111.446 340.841 110.567C340.724 111.615 341.331 111.268 341.732 111.976C341.996 112.444 341.867 112.673 342.059 113.402C342.588 115.408 344.605 117.367 345.68 119.116C348.354 123.469 351.305 127.598 353.982 131.956C356.533 136.109 359.39 140.05 361.837 144.26C364.621 149.046 368.089 153.564 370.186 158.725C370.257 158.898 370.84 159.173 370.984 159.433C371.236 159.886 371.182 160.668 371.344 161.181C371.907 162.958 372.819 164.707 373.859 166.179C374.77 167.471 374.837 169.226 375.464 170.741C376.349 172.876 377.283 174.989 378.143 177.135C379.481 180.476 380.387 183.677 381.312 187.164C381.911 189.424 382.387 191.683 382.578 194.017C382.754 196.163 382.797 198.398 383.591 200.43C384.133 199.594 384.771 198.51 384.406 197.474Z" fill="black"/>
<path fill-rule="evenodd" clip-rule="evenodd" d="M78.3568 243.461C77.3953 243.266 76.4906 243.007 76.2869 241.903C76.1473 242.424 76.0082 242.944 75.8687 243.465C77.0392 243.73 78.2102 243.995 79.3807 244.26C79.1074 243.779 78.9079 243.572 78.3568 243.461Z" fill="black"/>
<path fill-rule="evenodd" clip-rule="evenodd" d="M80.9364 62.2911C81.0093 61.9798 81.1037 61.6746 81.2201 61.3769C81.2992 61.6671 81.6867 62.2949 81.4611 62.5686C81.1737 62.9159 80.883 62.7193 80.9364 62.2911ZM85.6497 53.3234C85.9652 53.4625 86.648 53.4894 87.0397 53.607C86.0236 54.4811 85.8447 54.2239 84.5309 54.1225C84.4725 53.2381 84.832 52.9635 85.6497 53.3234ZM76.8422 75.2182C76.9784 75.2219 77.1151 75.2252 77.2521 75.2285C77.2604 74.8434 77.2505 74.4588 77.2215 74.0745C78.6069 74.3772 77.8227 71.9562 77.3875 71.4543C78.739 71.4995 79.3974 67.2205 79.8255 66.3961C80.2056 65.6641 80.6363 65.3809 80.9141 64.4881C81.1571 63.7068 81.4201 63.0037 81.7708 62.2646C82.5766 60.5653 83.6337 59.0221 83.4386 57.0416C84.1214 58.5277 84.7218 57.0441 85.1549 56.3336C85.8526 55.1887 87.5548 53.7279 87.7358 52.3681C87.8956 51.1711 87.0062 51.1077 87.5312 49.9976C88.0621 48.8738 88.4985 48.9865 89.4285 48.6271C90.0471 48.3877 90.17 48.6784 90.6065 47.8975C90.8893 47.3919 90.7895 47.0151 91.1518 46.6006C91.3013 46.7307 91.4714 46.7845 91.6619 46.7621C91.9559 46.3742 92.1488 45.9419 92.2404 45.4653C92.4801 44.8218 92.596 44.231 92.9571 43.6182C93.2995 43.0376 93.9074 41.4845 94.2295 41.2046C94.5715 40.9073 96.5114 41.0584 96.5031 41.0692C97.3043 40.0614 95.834 39.0573 97.8699 39.2697C97.4679 38.521 98.8803 37.5919 99.2902 37.1753C100.314 36.1356 100.396 35.6545 100.612 34.3469C100.722 33.6802 100.005 33.7573 100.965 33.6053C101.363 33.5428 101.744 34.0504 102.03 33.9759C103.295 33.6479 101.972 33.7105 102.321 33.195C102.431 33.0314 102.994 32.3714 102.988 32.3784C102.961 32.4116 103.115 31.8041 103.242 31.648C103.484 31.6273 103.722 31.5851 103.956 31.5213C104.075 31.2812 104.18 31.0352 104.271 30.7835C105.187 30.0199 106.557 29.6783 107.19 28.8394C107.599 28.297 107.477 27.7658 108.006 27.225C108.51 26.7099 109.176 27.083 109.276 25.9195C109.403 24.4392 107.813 23.7804 107.163 25.2744C105.399 23.1018 98.0261 31.0729 97.1743 32.1143C93.4747 36.635 89.8384 41.2675 86.8037 46.2665C83.8469 51.1375 81.4201 56.2628 79.5233 61.6353C78.6086 64.2256 78.0517 66.8044 77.4931 69.4838C77.3055 70.3811 75.9039 74.3797 76.4873 75.2745C76.6054 75.2558 76.7238 75.2368 76.8422 75.2182Z" fill="black"/>
<path fill-rule="evenodd" clip-rule="evenodd" d="M368.054 186.079C368.678 185.663 368.678 185.663 368.787 184.878C367.951 185.03 367.951 185.03 368.054 186.079Z" fill="black"/>
<path fill-rule="evenodd" clip-rule="evenodd" d="M60.8877 238.924C60.8955 238.923 60.9013 238.925 60.9059 238.93C60.8926 238.913 60.8446 238.863 60.8877 238.924Z" fill="black"/>
<path fill-rule="evenodd" clip-rule="evenodd" d="M60.4694 239.345C60.662 239.761 60.9713 239.865 61.3978 239.655C61.5659 239.895 59.9394 238.157 60.4694 239.345Z" fill="black"/>
<path fill-rule="evenodd" clip-rule="evenodd" d="M88.5952 49.4169C87.6193 51.3303 88.8416 49.9386 88.7791 50.5601C88.8201 50.1518 88.9894 49.5701 88.5952 49.4169Z" fill="black"/>
<path fill-rule="evenodd" clip-rule="evenodd" d="M247.261 79.0312C247.683 82.4621 252.377 80.8394 253.433 78.7641C254.202 77.2532 256.143 71.2828 254.055 70.0216C252.506 69.0866 252.175 73.1163 251.793 74.0164C251.154 75.524 250.654 74.4558 249.232 74.8425C247.662 75.2694 247.086 77.6084 247.261 79.0312Z" fill="black"/>
<path fill-rule="evenodd" clip-rule="evenodd" d="M242.132 72.7513C243.81 73.124 245.455 72.9319 246.646 71.6069C247.306 70.8731 248.185 69.4177 246.996 68.7076C245.919 68.0646 244.698 69.5705 243.564 69.2591C242.022 68.8355 242.816 67.1818 242.287 66.0895C240.342 67.2091 239.257 72.1128 242.132 72.7513Z" fill="black"/>
<path fill-rule="evenodd" clip-rule="evenodd" d="M243.871 81.4145C242.254 81.4112 242.241 83.4003 243.085 84.2529C243.893 85.0686 245.936 85.8942 247.031 85.2599C249.192 84.0078 245.18 81.5437 243.871 81.4145Z" fill="black"/>
<path fill-rule="evenodd" clip-rule="evenodd" d="M149.768 160.516C150.114 160.683 151.131 161.546 151.56 161.157C150.955 160.547 150.349 159.937 149.744 159.327C149.409 159.694 149.18 160.23 149.768 160.516Z" fill="black"/>
<path fill-rule="evenodd" clip-rule="evenodd" d="M142.125 73.2476C141.953 73.376 141.781 73.5039 141.609 73.6319C142.189 74.1151 142.174 74.2588 142.759 73.8012C142.586 73.5727 142.374 73.3884 142.125 73.2476Z" fill="black"/>
<path fill-rule="evenodd" clip-rule="evenodd" d="M251.739 187.08C251.414 186.496 250.8 187.572 250.385 187.747C249.709 188.032 249.155 186.525 249.349 188.331C247.821 187.632 246.894 189.236 245.909 190.072C244.517 191.253 242.815 191.893 241.887 193.57C246.256 194.593 251.057 190.826 254.316 188.351C254.847 187.947 257.505 185.909 255.704 185.712C254.967 185.631 252.286 188.061 251.739 187.08Z" fill="black"/>
<path fill-rule="evenodd" clip-rule="evenodd" d="M250.444 183.543C251.3 182.868 249.454 182.807 249.162 182.736C249.187 183.272 249.211 183.808 249.237 184.344C249.65 184.094 250.052 183.826 250.444 183.543Z" fill="black"/>
<path fill-rule="evenodd" clip-rule="evenodd" d="M247.228 185.791C247.484 185.631 248.198 185.132 247.712 184.761C247.274 185.04 246.96 185.495 246.892 186.015C247.004 185.94 247.116 185.866 247.228 185.791Z" fill="black"/>
<path fill-rule="evenodd" clip-rule="evenodd" d="M176.46 142.311C175.913 142.526 175.667 142.865 175.725 143.329C176.566 143.157 176.405 142.364 176.46 142.311Z" fill="black"/>
</svg>
